<?xml version="1.0" encoding="UTF-8"?><svg id="Layer_1" xmlns="http://www.w3.org/2000/svg" viewBox="0 0 1226.16 295.11"><path d="m377.27,221.96c15.86,8.33,41.24,16.66,67.02,16.66,27.76,0,42.43-11.5,42.43-28.95s-12.69-26.17-44.81-37.28c-44.42-15.86-73.76-40.45-73.76-79.32,0-45.61,38.47-80.11,101.13-80.11,30.54,0,52.35,5.95,68.21,13.48l-13.48,48.38c-10.31-5.16-29.74-12.69-55.52-12.69s-38.86,12.29-38.86,25.78c0,17.05,14.67,24.59,49.57,37.67,47.19,17.45,69,42.04,69,79.71,0,44.81-34.11,82.88-107.47,82.88-30.54,0-60.68-8.33-75.75-16.66l12.29-49.57Z" fill="#ff4b00" stroke-width="0"/><path d="m627.9,215.62l-19.04,68.61h-62.26L627.9,16.93h79.32l83.28,267.29h-65.43l-20.62-68.61h-76.54Zm67.81-45.21l-16.66-56.71c-4.76-15.86-9.52-35.69-13.48-51.56h-.79c-3.97,15.86-7.93,36.09-12.29,51.56l-15.86,56.71h59.09Z" fill="#ff4b00" stroke-width="0"/><path d="m821.04,67.7h-72.18V16.93h205.43v50.76h-72.97v216.53h-60.28V67.7Z" fill="#ff4b00" stroke-width="0"/><path d="m1132.71,73.3c-29.34,1.09-64.83,2.17-100.32,2.17v.72c31.15,7.97,65.92,18.11,94.53,27.53l95.25,29.7v43.1l-94.17,26.08c-28.97,7.97-63.74,15.94-95.62,22.09v.72c32.96,1.09,70.62,2.54,101.05,3.98l92.72,4.71v51.07l-244.11-15.57v-73.52l81.49-23.9c28.25-7.97,58.67-15.21,87.29-20.64v-1.45c-28.25-6.52-60.48-14.85-87.65-23.18l-81.13-25.71V28.76l244.11-13.04v53.6l-93.44,3.98Z" stroke-width="0"/><path d="m88.09,282.46c.07-.13.17-.31.21-.41-.14-1.05.04-2.01.2-2.86.07-.36.14-.72.18-1.09.37-3.32.71-6.65,1.04-9.97.17-1.68.34-3.35.51-5.03.31-3.03.64-6.06.96-9.1.79-7.34,1.6-14.94,2.24-22.41.28-3.27,1.03-6.6,4.62-8.78.12-.07.27-.22.42-.38.11-.11.23-.23.35-.33l47.4-42.1c2.07-1.84,3.54-3.92,4.48-6.37,1.52-3.95,1.45-8.05.87-13-.76-6.45-1.82-12.99-2.85-19.32-.29-1.79-.58-3.58-.87-5.37l-.11-.71c-.34-2.17-.7-4.42-1.41-6.44-1.27-3.6-2.79-7.19-4.26-10.67l-.93-2.21c-.16-.38-.52-.79-.87-1.01-4.85-3.01-9.72-5.98-14.59-8.96l-4.59-2.81c-1.92-1.17-3.84-2.34-5.76-3.51-4.49-2.72-9.14-5.54-13.65-8.42-6.54-4.18-8.72-12.85-4.96-19.73,3.8-6.97,12.07-9.81,19.23-6.63,1.52.68,2.94,1.56,4.31,2.42.49.3.98.61,1.47.9,1.29.77,2.57,1.55,3.85,2.33-3.87-5.4-9.73-8.99-16.5-10-7.83-1.16-15.51,1.31-21.08,6.8-8.65,8.52-9.88,21.37-3.05,31.96,4.29,6.66,7.97,13.95,11.25,22.28,4.93,12.51,8.27,25.54,10.89,36.63.32,1.37.07,2.53-.79,3.64-7.83,10.16-15.65,20.32-23.48,30.49l-14.35,18.65c-1.23,1.6-2.49,3.53-2.54,5.8-.08,4.01.06,8.11.2,12.08v.29s-.25,3.41-.25,3.41c-.01.05-.01.09-.02.17,0,.05,0,.06,0,.21.02,1.08.2,2.05.15,2.94-.02.33-.04.66-.05.99-.04,4.15,0,8.37.03,12.45l.03,3.26c.06,8.39.13,16.77.2,25.15l.05,5.8c.02,2.56.9,4.86,2.76,7.24l-.92.72,12.76,3.43-.28-1.13c1.04-.26,2.09-.94,3.11-1.59l.21-.13c1.21-.77,1.2-.95.98-1.44" fill="#ff6000" stroke-width="0"/><path d="m164.02,101.54c-1.23-3.05-3.2-5.31-6.03-6.98-4.87-2.88-9.66-5.89-14.49-8.84-9.15-5.6-18.29-11.23-27.47-16.78-1.95-1.18-4.06-1.74-6.13-1.74-3.89,0-7.61,1.99-9.78,5.6-3.27,5.44-1.48,12.38,4.06,15.77,2.93,1.79,5.86,3.58,8.79,5.38,9.87,6.03,19.75,12.06,29.6,18.13.66.41,1.31,1.09,1.6,1.79,2.29,5.44,4.5,10.92,6.73,16.39,3.61,8.89,7.18,17.79,10.82,26.67,1.83,4.47,5.97,7.17,10.55,7.17.79,0,1.6-.08,2.41-.25,5.32-1.09,9.13-5.8,9.33-11.35-.39-1.49-.63-3.04-1.2-4.46-6.25-15.51-12.57-30.98-18.81-46.49Z" fill="#ff6000" stroke-width="0"/><path d="m142.83,229.12c-.4-.69-.66-1.55-.71-2.35-.63-10.55-1.2-21.09-1.8-31.64-.08-1.49-.21-2.97-.32-4.6-.32.21-.47.28-.59.38-9.63,8.54-19.26,17.08-28.85,25.65-.33.29-.52,1.04-.41,1.48,1.41,5.65,2.97,11.26,4.31,16.93.65,2.74,1.9,5.05,3.64,7.2,2,2.48,3.87,5.06,5.8,7.6,9.11,11.98,18.2,23.97,27.32,35.93,2.16,2.83,4.97,4.4,8.32,4.4.55,0,1.11-.04,1.69-.13,7.89-1.17,11.67-9.33,7.63-16.24-8.68-14.87-17.37-29.74-26.03-44.62Z" fill="#ff6000" stroke-width="0"/><path d="m219.99,240.9c-.13.27-.2.45-.45.98l-.1.12" fill="#ff6000" stroke-width="0"/><path d="m214.42,251.69c-.2.3-.23.4-.49.8-.16.24-.43.47-.66.92-.41.79-.83,1.58-1.25,2.37-1.13,2.13-2.29,4.33-3.34,6.53-.45.94-.7,2.02-.68,2.97.05,3.47.2,7.01.34,10.43l.12,2.99c.04,1.12.08,2.24.11,3.35.08,2.76.17,5.62.43,8.39l-1.15.11,12.84-.74-1.16-.05.22-5.38c.2-4.95.4-9.9.56-14.85.04-1.45.52-2.64,1.53-3.86,5.25-6.29,10.49-12.59,15.73-18.89l8.73-10.5c1.35-1.62,1.93-3.36,1.79-5.33-.07-.93-.13-1.87-.19-2.8-.19-2.9-.38-5.9-.79-8.8-.36-2.47-.92-4.98-1.46-7.41-.29-1.28-.57-2.56-.83-3.85-.11-.52-.31-.74-.87-.91-.84-.26-1.65-.58-2.44-.88-.31-.12-.62-.25-.94-.36l-4.65-1.76c-3.78-1.43-7.56-2.85-11.34-4.3-4.19-1.6-6.75-6.12-5.84-10.28.63-2.87,2.28-5.16,4.64-6.44,2.41-1.31,5.29-1.43,8.12-.36l.51.19c-3.71-3.06-9.15-4.15-13.64-2.44-4.55,1.74-7.79,5.33-8.88,9.84-1.09,4.5.14,9.15,3.38,12.76,6.11,6.82,10.41,14.95,12.77,24.15.26,1.03,0,2.18-.34,2.91-.52,1.12-1.1,2.21-1.66,3.27-.41.78-.82,1.56-1.21,2.34-.37.74-.68,1.52-.96,2.2-.11.28-.22.54-.32.77-.02.05-.04.1-.07.14l-.43.71" fill="#ff6000" stroke-width="0"/><path d="m183.86,78.81c-6.89-6.16-15.04-10-23.71-12.84-11.91-3.9-24.21-5.7-36.67-6.54-1.82-.12-3.65-.21-5.45-.31,2.47,1.89,4.97,3.59,7.21,5.56,3.27,2.87,5.23,6.71,7.2,10.53.38.73,1.02,1.45,1.72,1.88,8.63,5.33,17.28,10.62,25.95,15.9,2.71,1.65,4.67,3.94,5.87,6.85,1.57,3.79,3.08,7.61,4.62,11.42,2.42,5.98,4.85,11.96,7.28,17.94.19.46.32.91.8.91.14,0,.31-.04.52-.12,5.77-2.35,10.55-5.88,13.56-11.45,2.67-4.94,3.35-10.27,2.83-15.84-.89-9.47-4.59-17.51-11.72-23.89Z" fill="#ff6000" stroke-width="0"/><path d="m70.02,76.72l-.32.37-.25.33-.77.6c-.47.36-.89.68-1.3,1.03-10.2,8.65-17.42,20.04-21.44,33.87-1.1,3.78.55,7.07,4.21,8.38,11.84,4.24,22.96,4.77,33.99,1.61,1.72-.49,3.45-1.17,5.12-1.83.44-.17.89-.35,1.33-.52-1.84-5.06-7.48-15.64-9.85-18.9l-1.06,1.14c-1.98,2.12-3.96,4.24-5.94,6.36-.08.08-.15.17-.23.26-.32.37-.72.83-1.3,1.1-.65.31-1.93.43-2.65-.28-.75-.75-.72-1.97-.69-2.33.05-.68.52-1.13.83-1.43l.15-.15,1.71-1.84c2.14-2.31,4.29-4.62,6.46-6.89.33-.35.34-.38.15-.83-3.49-8.38-3.25-16.76.73-24.92.05-.1.1-.21.16-.31l-7.97,4.41" fill="#ff6000" stroke-width="0"/><path d="m207.86,141.72s-.05,0-.07,0c-10.01,0-18.02,7.98-18.07,18-.04,9.94,8,18.01,17.97,18.02h.03c10,0,18.01-7.96,18.02-17.92,0-10.03-7.93-18.07-17.88-18.11Z" fill="#ff6000" stroke-width="0"/><path d="m260.22,283.84c-3.43-4.02-6.78-8.08-9.6-11.51-.56-.68-.98-1.5-1.19-2.31-1.38-5.43-2.74-10.87-4.1-16.31l-1.47-5.89c-.07-.29-.15-.58-.22-.87l-2.41,2.91c-3.22,3.87-6.43,7.74-9.66,11.6-.14.17-.15.18.03.64.86,2.09,1.71,4.19,2.57,6.28,1.09,2.68,2.18,5.35,3.29,8.02.35.83.7,1.62,1.18,2.1l1.36,1.35c4.26,4.23,8.67,8.6,13.14,12.74l-.79.85h0s10.81-3.22,10.81-3.22l-1.12-.33c.6-2.06.06-3.87-1.81-6.06Z" fill="#ff6000" stroke-width="0"/><path d="m263.31,213.51c-.4-1.04-.84-2.04-2.01-2.52-.2-.08-.23-.68-.26-1.05-.05-.85.16-1.79-.11-2.56-1.04-2.96-2.23-5.87-3.37-8.79-.63-1.61-1.77-2.72-3.39-3.33-8.03-3.04-16.05-6.08-24.08-9.1-.74-.28-1.53-.4-2.29-.6-3.89.12-6.56,3.95-5.25,7.58.63,1.74,1.88,2.82,3.58,3.46,6.86,2.58,13.7,5.2,20.56,7.75.95.35,1.5.89,1.86,1.84,1.83,4.87,3.72,9.71,5.58,14.56.8,2.07,1.59,4.14,2.41,6.2.97,2.46,3.02,3.88,5.27,3.88.7,0,1.42-.14,2.13-.42,2.94-1.17,4.19-4.37,2.97-7.54-1.21-3.12-2.4-6.26-3.6-9.38Z" fill="#ff6000" stroke-width="0"/><path d="m194.47,193.71l10.04,2.31c-.34-3.15,0-6.06.99-8.82l-2.58-.6c-3.11-.73-6.22-1.46-9.34-2.15-1.43-.32-2.36-1.06-3-2.42-2.22-4.67-4.47-9.32-6.73-13.98l-1.86-3.84c-2.28,1.89-4.97,3.03-8.15,3.44.06.14.12.27.18.4,1.02,2.12,2.05,4.23,3.08,6.35,2.27,4.66,4.62,9.49,6.85,14.27,1.02,2.19,2.46,3.33,4.68,3.7.44.07.88.18,1.32.28.23.05.46.11.69.16.5.1.99.21,1.59.33l.95.19" fill="#ff6000" stroke-width="0"/><path d="m138.38,295.11c-12.87,0-25.86-1.55-38.72-4.69-4.58-1.12-7.39-5.74-6.27-10.32,1.12-4.58,5.75-7.39,10.32-6.27,35.92,8.76,72.9,3.71,104.15-14.22,31.1-17.85,52.79-46.36,61.06-80.26,14.67-60.13-17.56-123.53-76.64-150.73-4.28-1.97-6.16-7.04-4.18-11.33,1.97-4.28,7.04-6.16,11.33-4.18,31.9,14.69,58.13,39.63,73.88,70.22,16.02,31.13,20.36,66.66,12.21,100.07-9.39,38.49-33.95,70.82-69.15,91.02-23.84,13.68-50.63,20.69-77.98,20.69Z" fill="#474747" stroke-width="0"/><path d="m41.61,43.4C23.4,61.87,10.44,84.97,4.14,110.82c-15.55,63.73,13.73,130.23,71.19,161.72,1.3.71,2.71,1.05,4.09,1.05,3.02,0,5.94-1.6,7.5-4.44,2.26-4.14.75-9.33-3.39-11.59C32.83,229.78,7.01,171.1,20.73,114.86c5.29-21.67,15.83-40.7,29.95-56.08-4.44-4.01-7.66-9.35-9.06-15.38Z" fill="#ff6000" stroke-width="0"/><path d="m179.58,4.19c-31.15-7.6-63.19-4.78-92.09,7.8,4.98,3.4,8.87,8.27,11.06,13.98,23.72-9.31,50.41-11.68,76.99-5.19,4.57,1.12,9.2-1.69,10.32-6.27,1.12-4.58-1.69-9.2-6.27-10.32Z" fill="#ff6000" stroke-width="0"/><circle cx="70.57" cy="36.39" r="27.48" fill="#ff6000" stroke-width="0"/></svg>