<svg xmlns="http://www.w3.org/2000/svg" width="310.616" height="64.153" viewBox="0 0 310.616 64.153">
  <g id="world-vision-vector-logo" transform="translate(-20.9 -260)">
    <path id="Trazado_523" data-name="Trazado 523" d="M416.655,260.311a.155.155,0,1,1,0-.311H522.282v64.153a154.014,154.014,0,0,0-105.627-63.842" transform="translate(-190.766)" fill="#ff6b00"/>
    <path id="Trazado_524" data-name="Trazado 524" d="M575.916,301.82c.725-10.563.466-16.724,2.278-18.381,1.709-1.553,4.66-1.968,9.838-2.33-11.236-1.294-10.977-.984-12.116-11.909-1.087,10.925-.88,10.563-12.116,11.909,5.126.362,8.129.828,9.838,2.33,1.76,1.657,1.605,7.767,2.278,18.381" transform="translate(-261.797 -4.436)" fill="#fff"/>
    <g id="Grupo_12" data-name="Grupo 12" transform="translate(20.9 288.012)">
      <path id="Trazado_525" data-name="Trazado 525" d="M91.577,326.216V349.05h6.317V330.462c2.123-1.812,3.624-1.243,7.818,2.226l2.589-5.747a13.046,13.046,0,0,0-5.281-1.191,6.606,6.606,0,0,0-4.971,2.175l-.311.362-.052-.052.052-2.123C97.79,326.164,91.577,326.216,91.577,326.216ZM117.1,314.1h-6.317v34.95H117.1ZM63.047,337.607c0,6.369,4.712,11.65,12.375,11.65S87.8,343.976,87.8,337.607s-4.712-11.65-12.375-11.65-12.375,5.281-12.375,11.65m134-11.391h-6.317V349.05h6.317Zm-2.382-10.3a3.314,3.314,0,1,0,3.314,3.314,3.271,3.271,0,0,0-3.314-3.314m6.265,16.517c-.57,8.7,12.168,6.628,11.805,11.909-.155,2.123-1.968,2.848-3.987,2.8-3.158-.259-5.074-2.019-6.783-4.09l-1.864,4.194a19.426,19.426,0,0,0,7.767,2.382c5.488.362,10.045-1.968,10.407-7.3.518-8.181-12.634-7.2-12.375-11.339.1-1.812,2.175-2.744,4.349-2.641,2.175.155,3.935,1.4,5.8,3.107l1.709-3.728a21.991,21.991,0,0,0-6.628-1.709c-5.954-.311-9.941,2.744-10.2,6.42m-68.658,17.087a12.013,12.013,0,0,0,7.611-2.744l.1.052V349h5.851V314.1h-6.369v13.928a12.237,12.237,0,0,0-7.2-2.175c-3.469,0-11.754,2.123-11.754,12.168.1,7.4,6.679,11.495,11.754,11.495m41.215-.466h2.692L189.541,318.4h-3.417l-9.32,21.54-9.165-21.54h-7.715Zm111.789,0V336.468c0-8.492-6.472-10.614-10.356-10.614a12.631,12.631,0,0,0-7.352,2.641l-.1-.052v-2.175h-5.851V349.05h6.317V330.617a8.032,8.032,0,0,1,5.281-2.33c3.314,0,5.644,3.21,5.644,6.731V349.05ZM46.582,321.3H43.009l-7.2,18.537L28.2,318.5H20.9l11.339,30.445h3.469l7.3-18.847,7.3,18.8h3.469L65.118,318.5H61.649l-7.922,21.281Zm34.588,16.31c0,5.281-1.76,9.475-5.747,9.475s-5.747-4.194-5.747-9.475,1.76-9.475,5.747-9.475c3.935,0,5.747,4.194,5.747,9.475m151.606,0c0,6.369,4.712,11.65,12.375,11.65s12.375-5.281,12.375-11.65-4.712-11.65-12.375-11.65-12.375,5.281-12.375,11.65m18.071,0c0,5.281-1.76,9.475-5.747,9.475s-5.747-4.194-5.747-9.475,1.76-9.475,5.747-9.475,5.747,4.194,5.747,9.475m-111.374-6.835v13.773c-1.657,1.4-3.158,2.434-5.437,2.434-2.8,0-6.42-2.382-6.42-9.216,0-7.4,5.8-12.789,11.857-6.99m82.845-4.556h6.317V349.05h-6.317Zm3.366-10.3A3.314,3.314,0,1,0,229,319.226a3.181,3.181,0,0,0-3.314-3.314" transform="translate(-20.9 -314.1)" fill="#231f20"/>
    </g>
    <path id="Trazado_526" data-name="Trazado 526" d="M533.889,332.278a2.631,2.631,0,0,1-2.589-2.589,2.589,2.589,0,1,1,5.178,0A2.6,2.6,0,0,1,533.889,332.278Zm0-4.66a2.123,2.123,0,1,0,2.123,2.123A2.068,2.068,0,0,0,533.889,327.618Zm-1.087.777h1.243c.725,0,.88.414.88.725a.807.807,0,0,1-.777.828c.259.052.414.311.621.725l.362.518h-.518l-.259-.414c-.362-.621-.466-.777-.828-.777h-.311v1.191h-.466l.052-2.8Zm1.087,1.191c.362,0,.57-.1.57-.414,0-.259-.155-.414-.466-.414h-.725v.828h.621Z" transform="translate(-246.125 -32.357)" fill="#231f20"/>
  </g>
</svg>
