<?xml version="1.0" encoding="UTF-8"?><svg id="Layer_1" xmlns="http://www.w3.org/2000/svg" viewBox="0 0 320.3 64.2"><g id="world-vision-vector-logo"><path id="Trazado_523" d="m205,.3c-.1,0-.2-.1-.2-.2s.1-.1.2-.1h105.6v64.2C285.9,29.1,247.6,5.9,205,.3" fill="#ff6b00" stroke-width="0"/><path id="Trazado_524" d="m293.2,37.4c.7-10.6.5-16.7,2.3-18.4,1.7-1.5,4.7-2,9.8-2.3-11.2-1.3-11-1-12.1-11.9-1.1,10.9-.9,10.6-12.1,11.9,5.1.4,8.1.8,9.8,2.3,1.8,1.7,1.6,7.8,2.3,18.4" fill="#fff" stroke-width="0"/><g id="Grupo_12"><path id="Trazado_525" d="m70.7,40.1v22.9h6.3v-18.6c2.1-1.8,3.6-1.2,7.8,2.2l2.6-5.8c-1.7-.8-3.5-1.2-5.3-1.2-1.9,0-3.7.8-5,2.2l-.3.4h-.1l.1-2.1c.1,0-6.1,0-6.1,0h0Zm25.5-12.1h-6.3v35h6.3V28Zm-54.1,23.5c0,6.4,4.7,11.7,12.4,11.7s12.4-5.3,12.4-11.7-4.7-11.7-12.4-11.7-12.4,5.4-12.4,11.7m134-11.4h-6.3v22.9h6.3v-22.9Zm-2.3-10.3c-1.8,0-3.3,1.5-3.3,3.3s1.5,3.3,3.3,3.3,3.3-1.5,3.3-3.3h0c0-1.8-1.5-3.2-3.3-3.3h0m6.2,16.6c-.6,8.7,12.2,6.6,11.8,11.9-.1,2.1-2,2.8-4,2.8-3.2-.3-5.1-2-6.8-4.1l-1.9,4.2c2.4,1.3,5,2.1,7.8,2.4,5.5.4,10-2,10.4-7.3.5-8.2-12.6-7.2-12.4-11.3.1-1.8,2.2-2.7,4.4-2.6,2.2.2,3.9,1.4,5.8,3.1l1.7-3.7c-2.1-.9-4.3-1.5-6.6-1.7-5.9-.5-9.9,2.6-10.2,6.3m-68.6,17c2.8,0,5.5-1,7.6-2.7h.1v2.2h5.8V28h-6.4v13.9c-2.1-1.5-4.6-2.2-7.2-2.2-3.5,0-11.8,2.1-11.8,12.2.2,7.4,6.8,11.5,11.9,11.5m41.2-.4h2.7l13.4-30.7h-3.4l-9.3,21.5-9.2-21.5h-7.8l13.6,30.7h0Zm111.7,0v-12.6c0-8.5-6.5-10.6-10.4-10.6-2.7.1-5.2,1-7.4,2.6h-.1v-2.2h-5.9v22.8h6.3v-18.5c1.4-1.4,3.3-2.2,5.3-2.3,3.3,0,5.6,3.2,5.6,6.7v14l6.6.1h0ZM25.7,35.2h-3.6l-7.2,18.5-7.6-21.3H0l11.3,30.5h3.5l7.3-18.9,7.3,18.8h3.5l11.3-30.4h-3.5l-7.9,21.3-7.1-18.5h0Zm34.6,16.3c0,5.3-1.8,9.5-5.8,9.5s-5.8-4.2-5.8-9.5,1.8-9.5,5.8-9.5,5.8,4.2,5.8,9.5m151.6,0c0,6.4,4.7,11.7,12.4,11.7s12.4-5.3,12.4-11.7-4.7-11.7-12.4-11.7-12.4,5.3-12.4,11.7m18.1,0c0,5.3-1.8,9.5-5.8,9.5s-5.8-4.2-5.8-9.5,1.8-9.5,5.8-9.5,5.8,4.2,5.8,9.5m-111.4-6.8v13.8c-1.7,1.4-3.2,2.4-5.4,2.4-2.8,0-6.4-2.4-6.4-9.2-.1-7.4,5.7-12.8,11.8-7m82.8-4.6h6.3v22.8h-6.3s0-22.8,0-22.8Zm3.4-10.3c-1.8,0-3.3,1.5-3.3,3.3s1.5,3.3,3.3,3.3,3.3-1.5,3.3-3.3h0c.1-1.8-1.3-3.2-3-3.3h-.3" fill="#231f20" stroke-width="0"/></g></g><path id="Trazado_526" d="m317.7,7.4c-1.4,0-2.6-1.2-2.6-2.6s1.1-2.6,2.6-2.6,2.6,1.2,2.6,2.6h0c0,1.4-1.1,2.5-2.6,2.6h0Zm0-4.7c-1.2,0-2.1,1-2.1,2.1s1,2.1,2.1,2.1,2.1-1,2.1-2.1h0c0-1.1-.9-2.1-2-2.1t-.1,0Zm-1.1.8h1.2c.7,0,.9.4.9.7,0,.4-.3.8-.8.8.3,0,.4.3.6.7l.4.5h-.5l-.3-.4c-.4-.6-.5-.8-.8-.8h-.3v1.2h-.5l.1-2.7h0Zm1.1,1.2c.4,0,.6-.1.6-.4s-.2-.4-.5-.4h-.7v.8h.6Z" fill="#231f20" stroke-width="0"/></svg>