<?xml version="1.0" encoding="UTF-8"?><svg id="Layer_1" xmlns="http://www.w3.org/2000/svg" viewBox="0 0 67.51 97.12"><path id="Decoration_3" d="m4.15,90.7l1.63,1.02c.95.6,1.24,1.85.64,2.81,0,0,0,0,0,0l-1.02,1.63c-.6.95-1.85,1.24-2.81.64,0,0,0,0,0,0l-1.63-1.02c-.95-.6-1.24-1.85-.64-2.81,0,0,0,0,0,0l1.02-1.63c.6-.95,1.85-1.24,2.81-.64,0,0,0,0,0,0h0Z" fill="#ffb37c"/><rect id="Decoration_3-2" x="50.41" y="53.64" width="8.17" height="8.17" rx="2" ry="2" transform="translate(-23.37 73.17) rotate(-57.87)" fill="#ffb37c"/><rect id="Decoration_2" x="62.2" y="25.81" width="5.08" height="5.08" rx="2" ry="2" transform="translate(-1.08 54.09) rotate(-45)" fill="#ffb37c"/><rect id="Decoration_3-3" x="5.3" y="1.1" width="9.82" height="9.82" rx="2" ry="2" transform="translate(-.31 11.46) rotate(-57.87)" fill="#ffb37c"/></svg>