<?xml version="1.0" encoding="UTF-8"?><svg id="Layer_1" xmlns="http://www.w3.org/2000/svg" viewBox="0 0 49.03 43.18"><g id="diagram_twotone"><path id="Trazado_515" d="m1.71,0c.89-.05,1.65.62,1.71,1.51v34.13c0,2.5,2.29,4.52,5.13,4.52h38.77c.83-.11,1.59.48,1.7,1.31.11.83-.48,1.59-1.31,1.7-.13.02-.26.02-.39,0H8.55c-4.73,0-8.55-3.36-8.55-7.53V1.51C.06.62.82-.05,1.71,0Z" fill="#292d32" fill-rule="evenodd"/><path id="Trazado_516" d="m46.92,7.74c.78.67.87,1.85.2,2.63l-11.35,13.34h0c-2.43,2.85-6.7,3.18-9.54.75-.14-.12-.27-.24-.4-.37l-2.36-2.37c-1.19-1.2-3.13-1.21-4.33-.02-.06.06-.13.13-.18.2h0l-11.33,13.31c-.66.78-1.82.87-2.6.21,0,0,0,0-.01-.01-.77-.67-.86-1.84-.2-2.62l11.33-13.32h0c2.41-2.85,6.67-3.19,9.51-.78.15.13.3.26.44.4h0l2.34,2.35c1.2,1.2,3.15,1.21,4.36,0,.06-.06.11-.11.16-.18h0l11.35-13.34c.66-.78,1.82-.87,2.6-.22,0,0,.01.01.02.02Z" fill="#ff6b00" fill-rule="evenodd"/></g></svg>