<?xml version="1.0" encoding="UTF-8"?><svg id="Layer_1" xmlns="http://www.w3.org/2000/svg" viewBox="0 0 22.42 19.88"><g id="Grupo_892"><g id="Group_2_linear"><path id="Trazado_536" d="m8.2,1.81c1.5,0,2.71,1.21,2.71,2.71s-1.21,2.71-2.71,2.71-2.71-1.21-2.71-2.71,1.21-2.71,2.71-2.71h0Zm4.52,2.71C12.72,2.02,10.69,0,8.2,0,5.7,0,3.68,2.02,3.68,4.52s2.02,4.52,4.52,4.52h0c2.49,0,4.52-2.02,4.52-4.52h0Zm3.61,10.84c0-2.5-2.02-4.52-4.52-4.52h-7.23C2.09,10.81.04,12.8,0,15.29c-.04,2.49,1.96,4.55,4.45,4.58.04,0,.09,0,.13,0h7.23c2.49,0,4.52-2.02,4.52-4.52Zm-4.52-2.71c1.5-.03,2.73,1.16,2.76,2.66.03,1.5-1.16,2.73-2.66,2.76-.03,0-.07,0-.1,0h-7.23c-1.5.03-2.73-1.16-2.76-2.66-.03-1.5,1.16-2.73,2.66-2.76.03,0,.07,0,.1,0h7.23Z" fill="#fff" fill-rule="evenodd"/><path id="Trazado_537" d="m13.32,7.7c.2-.3.54-.48.91-.47,1.5.03,2.73-1.16,2.76-2.66.03-1.5-1.16-2.73-2.66-2.76-.03,0-.07,0-.1,0-.36,0-.7-.17-.91-.47l-.02-.04c-.28-.34-.23-.83.1-1.11.1-.08.21-.13.33-.16.17-.02.33-.03.5-.03,2.49-.04,4.55,1.96,4.58,4.45.04,2.49-1.96,4.55-4.45,4.58-.04,0-.09,0-.13,0-.17,0-.33,0-.5-.03-.42-.1-.69-.52-.59-.94.03-.12.08-.23.16-.33l.03-.04Z" fill="#fff"/><path id="Trazado_538" d="m16.98,17.25c.13-.23.38-.38.64-.38h.21c1.5.03,2.73-1.16,2.76-2.66.03-1.5-1.16-2.73-2.66-2.76-.03,0-.07,0-.1,0h-.21c-.27,0-.51-.15-.64-.38-.27-.45-.12-1.03.32-1.3.11-.07.23-.11.35-.13h.18c2.49-.04,4.55,1.96,4.58,4.45.04,2.49-1.96,4.55-4.45,4.58-.04,0-.09,0-.13,0h-.18c-.52-.07-.88-.55-.8-1.07.02-.13.06-.25.13-.35Z" fill="#fff"/></g></g></svg>