<?xml version="1.0" encoding="UTF-8"?><svg id="Layer_1" xmlns="http://www.w3.org/2000/svg" xmlns:xlink="http://www.w3.org/1999/xlink" viewBox="0 0 960 600"><defs><radialGradient id="radial-gradient" cx="449.85" cy="296.77" fx="449.85" fy="296.77" r="16.53" gradientTransform="translate(-9.26 615.11) scale(1.01 -1.03)" gradientUnits="userSpaceOnUse"><stop offset=".22" stop-color="#f9f0aa"/><stop offset="1" stop-color="#b07e09"/></radialGradient><radialGradient id="radial-gradient-2" cx="453.99" cy="292.04" fx="453.99" fy="292.04" r="10.91" gradientTransform="translate(-9.26 615.11) scale(1.01 -1.03)" gradientUnits="userSpaceOnUse"><stop offset=".22" stop-color="#f9f0aa"/><stop offset="1" stop-color="#b07e09"/></radialGradient><radialGradient id="radial-gradient-3" cx="456.54" cy="296.39" fx="456.54" fy="296.39" r="9.78" gradientTransform="translate(-9.26 615.11) scale(1.01 -1.03)" gradientUnits="userSpaceOnUse"><stop offset=".22" stop-color="#f9f0aa"/><stop offset="1" stop-color="#b07e09"/></radialGradient><radialGradient id="radial-gradient-4" cx="460.82" cy="297.98" fx="460.82" fy="297.98" r="17.35" gradientTransform="translate(-9.26 615.11) scale(1.01 -1.03)" gradientUnits="userSpaceOnUse"><stop offset=".22" stop-color="#f9f0aa"/><stop offset="1" stop-color="#b07e09"/></radialGradient><linearGradient id="linear-gradient" x1="476.33" y1="345.86" x2="474.78" y2="373.07" gradientTransform="translate(-9.26 615.11) scale(1.01 -1.03)" gradientUnits="userSpaceOnUse"><stop offset=".22" stop-color="#b07e09" stop-opacity="0"/><stop offset="1" stop-color="#b07e09"/></linearGradient><linearGradient id="linear-gradient-2" x1="485.55" y1="308.38" x2="487.92" y2="278.45" gradientTransform="translate(-9.26 615.11) scale(1.01 -1.03)" gradientUnits="userSpaceOnUse"><stop offset=".22" stop-color="#b07e09" stop-opacity="0"/><stop offset="1" stop-color="#b07e09"/></linearGradient><radialGradient id="radial-gradient-5" cx="448.41" cy="352.67" fx="448.41" fy="352.67" r="13.02" gradientTransform="translate(-9.26 615.11) scale(1.01 -1.03)" gradientUnits="userSpaceOnUse"><stop offset=".22" stop-color="#f9f0aa"/><stop offset="1" stop-color="#b07e09"/></radialGradient><linearGradient id="linear-gradient-3" x1="453.97" y1="355.51" x2="457.8" y2="364.46" gradientTransform="translate(-9.26 615.11) scale(1.01 -1.03)" gradientUnits="userSpaceOnUse"><stop offset=".22" stop-color="#f9f0aa"/><stop offset="1" stop-color="#b07e09"/></linearGradient><linearGradient id="linear-gradient-4" x1="475.75" y1="367.79" x2="478.36" y2="334.59" gradientTransform="translate(-9.26 615.11) scale(1.01 -1.03)" gradientUnits="userSpaceOnUse"><stop offset=".22" stop-color="#f9f0aa"/><stop offset="1" stop-color="#b07e09"/></linearGradient><radialGradient id="radial-gradient-6" cx="480.29" cy="389.77" fx="480.29" fy="389.77" r=".34" gradientTransform="translate(-9.26 615.11) scale(1.01 -1.03)" gradientUnits="userSpaceOnUse"><stop offset=".26" stop-color="#a50a0a"/><stop offset="1" stop-color="#4c0505"/></radialGradient><radialGradient id="radial-gradient-7" cx="487.48" cy="396.82" fx="487.48" fy="396.82" r=".34" gradientTransform="translate(-5.21 632) scale(.99 -1.06)" gradientUnits="userSpaceOnUse"><stop offset="0" stop-color="#fff"/><stop offset="1" stop-color="#fff" stop-opacity="0"/></radialGradient></defs><path d="m0,0h960v600H0V0Z" fill="#4997d0" stroke-width="0"/><path d="m320,0h320v600h-320V0Z" fill="#fff" stroke-width="0"/><path d="m451.73,380.04c2.71-.42,4.27-1.18,6.12-1.84m2.25-4.19c1.37,1.48,2.45,3.05,3.04,4.79m-8.23-5.24c1.42,1.36,2.41,2.8,3.18,4.29m-50.28-141.09c-1.06,1.65-3.14,2.82-4.85,3.54m-.34-.2c.04-1.41-.24-3.13.05-4.54m-2.01,5.19l.69,2.09m2.05.95l-2.06.35m-4.01-.91c-.01,2.6.29,5.74.54,8.08m-1.82-.99c.48.78.96,1.55,1.57,1.95m-4.65,6.68c.5.97.96,2.19,1.32,4.09m3.77-4.78c-.42.21-1.23.96-1.96,1.6m1.61,4.54c-.99.9-2.23,1.55-3.48,2.19m-3.87,41.74c1.17,1.96,2.46,3.68,4.02,4.84m.59,1.74c-1.31-.17-2.19-.56-2.99-1m4.46,8.68l1.71,1m-.45,3.59c1.27.84,2.55,2.36,3.82,3.99m-1.47,2.94c1.4.3,2.53.66,3.28,1.1m-1.08,2.5l2.15.07m1.22-5.56l-.49,4.39m1.03,1.64l.44-1.7m4.75,6.19l-.15,3.34m39.76,28.82l-1.18,1.65m-2.45-4.04l-.69-1.89" fill="none" stroke="#24420e" stroke-width=".44"/><path d="m486.2,387.74c-.81-1.3-2.14-2.09-3.32-2.74-7.84-4.19-15.62-6.04-24.46-7.48-2.04-.35-4.08-2.3-6.17-3.29-5.03-2.44-10.64-3.39-15.53-5.89-.33-.15-1.57-.9-2.14-1.6-1.95-2.3-5.46-2.99-7.65-5.14-8.45-8.13-17.43-15.61-22.08-26.39-5.65-13.12-12.68-26.64-11.73-41.55.62-9.43-.76-18.96,1.52-27.94,3.37-13.32,7.69-26.49,15.62-37.51l-1.33.85c-7.98,11.03-12.3,24.2-15.67,37.51-2.28,8.98-.9,18.51-1.52,27.94-.95,14.92,6.08,28.43,11.73,41.6,4.65,10.73,13.68,18.21,22.08,26.39,2.18,2.09,5.7,2.79,7.65,5.14.57.65,1.85,1.45,2.14,1.6,4.89,2.49,10.5,3.44,15.53,5.84,2.09,1.05,4.13,2.94,6.17,3.29,8.83,1.45,16.62,3.34,24.46,7.48,1.23.65,2.52,1.45,3.32,2.74l1.38-.85" fill="#406325" stroke="#24420e" stroke-width=".16"/><path d="m405.3,332.67c-2.83-6.51-1.38-22.32-.2-24.31,6.73,13.44,4.49,24.52.2,24.31Zm46.51,46.89c-7.19.38-20.9,9.6-22.17,11.77,15.3.12,24.36-7.56,22.17-11.77Zm7.57-4.43c-6.94-5.63-14.39-24.44-14.23-27.38,15.32,11.19,19.2,25.08,14.23,27.38Z" fill="#67923d" stroke="#24420e" stroke-width=".16"/><path d="m454.25,375.19c-7.05-4.37-16.01-20.78-16.16-23.5,15.42,8.46,20.48,20.79,16.16,23.5Zm-15.78-7c1-8.08-5.75-25.04-7.69-26.84-2.99,17.01,3.04,28.48,7.69,26.84Zm-27.7-25.08c-2.34-5.83-.62-19.96.48-21.69,5.6,12.08,3.31,21.92-.48,21.69Zm-13.9-79.37c3.64-6.87,18.64-16.23,21.29-16.46-6.87,15.05-18.29,20.48-21.29,16.46Z" fill="#67923d" stroke="#24420e" stroke-width=".16"/><path d="m397.59,257.99c2.18-7.52,15.08-19.9,17.61-20.7-3.78,16.19-13.87,23.94-17.61,20.7Zm28.2,102.42c-5.06-6.38-8.13-24.65-7.39-27.23,11.43,12.93,12.2,26.07,7.39,27.23Zm-29.06-37.66c-7.01,1.12-21.66-4.79-23.25-6.55,14.74-3.25,24.63,2.14,23.25,6.55Zm-2.25-10c.83-5.76,8.79-16.33,10.51-17.21-1.13,12.35-7.55,19.21-10.51,17.21Zm52.06,60.47c-8.6.45-24.98,11.47-26.5,14.07,18.28.15,29.11-9.03,26.5-14.07Z" fill="#67923d" stroke="#24420e" stroke-width=".16"/><path d="m405.37,332.52c4.29.22,6.5-10.74-.27-24.15,1.23,12.73,1.23,23.05.27,24.15Zm11.34,20.65c-4.54-5.65-19.66-11.7-22.02-11.51,9.01,12.48,20.16,15.6,22.02,11.51Zm-24.77-54.73c-1.16-8.31-12.51-23.46-14.95-24.76,1.54,17.74,10.7,27.58,14.95,24.76Zm8.51,35.42c-5.06-3.8-19.24-5.52-21.24-4.88,10.28,8.58,20.5,8.74,21.24,4.88Zm-9.49-25.65c-2.93-5.88-15.02-13.93-17.13-14.15,5.6,12.8,14.76,17.5,17.13,14.15Zm2.77-49.11c.92-7.82-5.61-24.22-7.45-25.99-2.91,16.45,2.96,27.54,7.45,25.99Zm4.53-15.41c2.7-6.71.77-23.17-.53-25.22-6.49,13.95-3.88,25.46.53,25.22h0Zm5.09-7.9c3.18-4.93,4.22-18.27,3.53-20.11-7.34,10.04-7.06,19.57-3.53,20.11Zm6.03-6.34c4.46-3.59,9.35-16.01,9.21-18.01-9.88,7.18-12.39,16.36-9.21,18.01h0Zm-16.28,44.63c.11.9-.99-8.45-10.2-18.92.41,15.31,6.34,21.09,10.2,18.92Zm33.02,88.61c-6.26-4.71-23.72-6.95-26.13-6.12,12.74,10.7,25.23,10.9,26.13,6.12Zm12.24,5.41c-4.61,1.65-10.59-9.73-7.65-26.74,2.85,14.42,6.27,25.89,7.65,26.74Zm13.49,11.52c2.15,4.22-6.79,11.81-22.1,11.69,12.12-5.05,21.54-10.19,22.1-11.69Zm7.49-4.62c4.93-2.32,1.12-16.05-14.21-27.24,8.72,13.65,14.66,25.42,14.21,27.24Zm-5.14.08c4.34-2.75-.7-14.92-16.12-23.39,9.54,11.55,16.32,21.66,16.12,23.39Zm-43.4-32.01c3.79.23,6.04-9.57.48-21.61.73,11.34.42,20.64-.48,21.61Zm-13.95-79.27c2.99,4.03,14.25-1.35,21.13-16.45-10.31,9.65-19.5,16.59-21.13,16.45Zm.85-5.8c3.73,3.25,13.73-4.44,17.51-20.64-8.21,11.62-15.87,20.39-17.51,20.64Zm28.11,102.36c4.81-1.16,4.01-14.24-7.36-27.14,5.08,13.86,8.13,25.57,7.36,27.14Zm-29.28-37.66c1.43-4.38-8.41-9.68-23.13-6.47,12.43,2.27,22.36,5.21,23.13,6.47Zm-1.97-9.93c2.94,1.95,9.31-4.81,10.43-17.17-4.74,9.48-9.3,16.8-10.43,17.17Zm51.93,60.62c2.61,5.04-8.07,14.12-26.4,13.97,14.49-6.04,25.74-12.17,26.4-13.97Z" fill="#406325" stroke="#24420e" stroke-width=".16"/><path d="m398.22,327.17c-2.7-6.47-15.01-15.97-17.22-16.36,5.02,14.09,14.45,19.78,17.22,16.36Z" fill="#406325" stroke="#24420e" stroke-width=".16"/><path d="m391.18,273.07c4.13-4.82,17.72-9.44,19.88-9.16-8.16,10.75-18.2,12.93-19.88,9.16Zm25.43,80.15c-1.83,4.05-12.88.95-21.95-11.52,11.04,7.06,20.53,11.89,21.95,11.52Zm-24.74-54.8c-4.25,2.82-13.31-6.96-14.89-24.67,6.72,13.64,13.22,24.16,14.89,24.67Zm8.54,35.47c-.78,3.85-10.84,3.71-21.16-4.87,10.88,3.52,20.02,5.51,21.16,4.87Zm-9.58-25.77c-2.37,3.35-11.45-1.31-17.05-14.11,8.31,8.23,15.71,14.2,17.05,14.11Zm2.8-49.12c-4.49,1.61-10.3-9.38-7.4-25.83,2.7,13.93,6.02,24.97,7.4,25.83Zm4.53-15.35c-4.36.23-6.97-11.17-.47-25.12-.83,13.22-.51,24,.47,25.12Zm5.11-7.92c-3.52-.54-3.77-9.97,3.57-20.01-2.78,10.31-4.21,18.97-3.57,20.01Zm6.06-6.28c-3.18-1.7-.71-10.78,9.17-17.91-5.6,8.93-9.45,16.71-9.17,17.91Z" fill="#67923d" stroke="#24420e" stroke-width=".16"/><path d="m393.04,274.08c-3.86,2.18-9.71-3.62-10.13-18.93,5.17,12.07,8.72,18.39,10.13,18.93Zm33.03,88.63c-.9,4.78-13.33,4.55-26.04-6.09,13.35,4.42,24.59,6.91,26.04,6.09Zm-8.29-9.79c-4.08-4.49-7.26-17.92-6.84-19.88,9.14,9.03,10.36,18.76,6.84,19.88Zm-17.12-25.81c-3.62-5.98-3.93-21.6-2.96-23.71,8.38,12.2,7.36,23.33,2.96,23.71Zm-2.67.09c-2.77,3.41-12.1-2.23-17.11-16.36,8.25,9.41,15.69,16.33,17.11,16.36Z" fill="#67923d" stroke="#24420e" stroke-width=".16"/><path d="m391.13,273.15c1.64,3.74,11.61,1.58,19.77-9.17-12.14,7.02-16.95,10.06-19.77,9.17Zm9.47,53.79c4.39-.38,5.41-11.4-2.97-23.6,2.7,12.25,3.84,22.39,2.97,23.6Zm17.2,25.94c3.52-1.11,2.28-10.8-6.81-19.81,4.47,10.05,7.31,18.61,6.81,19.81Z" fill="#406325" stroke="#24420e" stroke-width=".16"/><path d="m393.02,291.51c2.09-8.66-1.73-23.35-4.36-26.4-4.78,15.94-.25,27.48,4.36,26.4Z" fill="#406325" stroke="#24420e" stroke-width=".16"/><path d="m392.71,293.57c-5.98,1.38-8.77-12.43-4.14-27.97,1.09,13.99,2.87,27.01,4.14,27.97Z" fill="#67923d" stroke="#24420e" stroke-width=".16"/><path d="m391.5,293.52c-.57-7.78,7.03-23.85,9.04-25.52,2.04,16.32-4.53,27.18-9.04,25.52Z" fill="#67923d" stroke="#24420e" stroke-width=".16"/><path d="m391.61,293.41c4.48,1.69,11-9.05,8.96-25.37-3.56,13.7-7.55,24.55-8.96,25.37Z" fill="#406325" stroke="#24420e" stroke-width=".16"/><path d="m392.91,303.37c0-7.86,8.59-22.96,10.71-24.4.85,16.7-6.42,26.68-10.71,24.4Z" fill="#67923d" stroke="#24420e" stroke-width=".16"/><path d="m393,303.53c4.29,2.28,11.47-7.61,10.62-24.3-4.47,13.28-9.18,23.65-10.62,24.3Z" fill="#406325" stroke="#24420e" stroke-width=".16"/><ellipse cx="395.66" cy="249.67" rx="1.1" ry="1.12" fill="#ba1f3e" stroke="#511124" stroke-width=".19"/><ellipse cx="404.15" cy="243.26" rx="1.1" ry="1.12" fill="#ba1f3e" stroke="#511124" stroke-width=".19"/><ellipse cx="400.45" cy="239.79" rx="1.1" ry="1.12" fill="#ba1f3e" stroke="#511124" stroke-width=".19"/><ellipse cx="391.26" cy="313.56" rx="1.3" ry="1.32" fill="#ba1f3e" stroke="#511124" stroke-width=".22"/><ellipse cx="393.83" cy="297.04" rx="1.3" ry="1.32" fill="#ba1f3e" stroke="#511124" stroke-width=".22"/><ellipse cx="407.2" cy="335.6" rx="1.3" ry="1.32" fill="#ba1f3e" stroke="#511124" stroke-width=".22"/><ellipse cx="401.29" cy="337.64" rx="1.3" ry="1.32" fill="#ba1f3e" stroke="#511124" stroke-width=".22"/><ellipse cx="446.23" cy="369.87" rx="1.3" ry="1.32" fill="#ba1f3e" stroke="#511124" stroke-width=".22"/><ellipse cx="449.18" cy="377.18" rx="1.3" ry="1.32" fill="#ba1f3e" stroke="#511124" stroke-width=".22"/><path d="m562.3,257.62c.63.64,1.19.83,2.33,1.96m-6.72-19.57c-.04-1.41-.64-3.72-.93-5.14m3.5,3.08c.06,2.02-.22,3.93-1.08,5.69m-4.22-.55c1.78,1.63,3.55,3.18,5.33,4.02" fill="none" stroke="#24420e" stroke-width=".44"/><path d="m564.39,248.38c.11,2.05-.14,4.09-.69,6.14m.33,1.56l1.33-2.34m-1.89,12.63c1.42.3,2.85,2.01,3.55,3.6m.48-1.33l1.66-2.26m1.74,31.74c-.76,1.35-1.6,2.52-2.49,3.6m-4.02-.08c.8,1.5,1.58,3.04,2.63,4.16m2.49,6.06c-1.33,1.83-2.81,3.27-4.5,4.16m.14,4.65c-1.11.78-2.46,3.05-3.74,4.87m8.56-20.85l-2.15.9m-1.42-7.74l1.27,1.15m-9.43,38.62c-.85-.11-1.48,0-2.15.07m-2.02-2l.62,1.69m-7.82,5.29c-.27,1.93-.07,3.86.21,5.78m4.37-9.32l1.04,2.33m3.88-.21l-2.56.42m-31.29,26.1l-.93,1.8m12.07-4.06c-1.51.19-2.82-.04-4.16-.21m-5.54,6.14c-.97-.39-1.97-.72-2.98-.99m-14.95,2.74c-.92.8-2.02,2.52-3.12,4.23m-.55-4.72c-2.47,1.29-3.23,3.83-4.5,6m2.84,2.96c-1.58-.48-3.46-1.27-5.4-2.12m17-.7c-2.35-1.24-4.82-1.12-7.24-1.52m10.91-.35c-3.68-.73-7.11-.63-10.42-.14m7.89-2.69l-1.42-.6m-5.61,5.68l-2.36-1.34m58.76-50.82c-1.27.84-2.55,2.36-3.82,3.99m1.85-82.25l-2.18-.75" fill="none" stroke="#24420e" stroke-width=".44"/><path d="m474.31,387.66c.81-1.3,2.14-2.09,3.32-2.74,7.84-4.19,15.62-6.04,24.46-7.48,2.04-.35,4.08-2.3,6.17-3.29,5.03-2.44,10.64-3.39,15.53-5.89.33-.15,1.57-.9,2.14-1.6,1.95-2.3,5.46-2.99,7.65-5.14,8.45-8.13,17.43-15.61,22.08-26.39,5.65-13.12,12.68-26.64,11.73-41.55-.62-9.43.76-18.96-1.52-27.94-3.37-13.32-7.7-26.49-15.63-37.51l1.33.85c7.98,11.03,12.3,24.2,15.67,37.51,2.28,8.98.9,18.51,1.52,27.94.95,14.92-6.08,28.43-11.73,41.6-4.65,10.73-13.68,18.21-22.08,26.39-2.18,2.09-5.7,2.79-7.65,5.14-.57.65-1.85,1.45-2.14,1.6-4.89,2.49-10.5,3.44-15.53,5.84-2.09,1.05-4.13,2.94-6.17,3.29-8.83,1.45-16.62,3.34-24.45,7.48-1.23.65-2.52,1.45-3.33,2.74l-1.38-.85" fill="#406325" stroke="#24420e" stroke-width=".16"/><path d="m554.69,335.75c2.78-7.66,0-25.66-1.51-27.84-6.74,15.88-3.39,28.41,1.51,27.84Zm-7.21,7.27c2.34-5.83.62-19.96-.48-21.69-5.6,12.08-3.31,21.92.48,21.69Zm17.05-76.6c-3.34-6.3-17.11-14.89-19.53-15.1,6.3,13.81,16.79,18.8,19.53,15.1Zm-1.61-8.28c-1.82-6.27-12.57-16.58-14.67-17.24,3.15,13.49,11.56,19.95,14.67,17.24Zm4.81,15.45c-3.59-4.18-15.38-8.19-17.25-7.95,7.08,9.33,15.79,11.22,17.25,7.95Zm-2.84,47.86c6.22,1,19.23-4.25,20.63-5.81-13.08-2.89-21.86,1.9-20.63,5.81Zm-.15-5.83c-.04-5.82-6.49-17.41-8.07-18.52-.56,12.39,4.87,20.1,8.07,18.52Zm.42-14.13c0-7.86-8.59-22.96-10.71-24.4-.85,16.69,6.42,26.68,10.71,24.4Zm-53.64,77.75c4.54,5.68,19.93,11.5,22.4,11.26-8.93-12.64-20.35-15.55-22.4-11.26Z" fill="#406325" stroke="#24420e" stroke-width=".16"/><path d="m554.6,335.57c-4.89.57-8.2-11.81-1.41-27.67-.5,14.66.24,26.47,1.41,27.67Zm-54.13,45.1c7.19.37,20.9,9.6,22.17,11.77-15.3.12-24.36-7.56-22.17-11.77Z" fill="#67923d" stroke="#24420e" stroke-width=".16"/><path d="m500.48,372.47c2.13-8.23,15.22-21.91,17.76-22.88-3.65,17.7-13.93,26.38-17.76,22.88h0Zm21.57-4.37c-1-8.08,5.75-25.04,7.69-26.84,2.99,17.01-3.04,28.48-7.69,26.84Zm21.76-15.02c4.54-5.65,19.66-11.7,22.02-11.51-9.01,12.48-20.16,15.6-22.02,11.51Zm26.16-55.02c.92-6.54,9.85-18.47,11.77-19.49-1.21,13.97-8.42,21.71-11.77,19.49Zm-11.86,39.32c5.9-4.43,22.42-6.43,24.74-5.69-11.98,10-23.89,10.18-24.74,5.69Zm10.42-25.33c3.08-6.18,15.79-14.64,18.01-14.87-5.88,13.45-15.52,18.39-18.01,14.87Zm-1.5-47.06c-.1-7.88,8.1-23.48,10.11-25.04,1.18,16.67-5.8,27.07-10.11,25.04h0Zm-7.03-26.78c-2.35-5.46-1.12-19.02-.09-20.74,5.63,11.32,3.72,20.84.09,20.74Zm-4.29-2.25c-5.35-4.84-10.8-20.41-10.56-22.83,11.92,9.57,14.59,21.03,10.56,22.83Zm11.79,35.68c-.32.84,2.99-7.95,14.42-15.81-4.07,14.74-11.2,18.88-14.42,15.81Zm-34.58,92.87c7.11-5.34,26.91-7.89,29.65-6.95-14.45,12.14-28.62,12.37-29.65,6.95Zm14.53-21.53c-3.79.23-6.04-9.57-.48-21.61-.73,11.34-.42,20.64.48,21.61Zm17.09-76.51c-2.75,3.69-13.08-1.24-19.39-15.09,9.46,8.85,17.89,15.23,19.39,15.09Zm-1.72-8.33c-3.11,2.71-11.44-3.7-14.59-17.2,6.84,9.68,13.22,16.99,14.59,17.2Zm4.96,15.53c-1.42,3.25-10.08,1.37-17.16-7.96,10.54,6.09,14.71,8.73,17.16,7.96Zm-2.73,47.74c-1.27-3.89,7.47-8.59,20.53-5.74-11.04,2.01-19.84,4.62-20.53,5.74Zm-.41-5.78c-3.18,1.52-8.56-6.08-8-18.47,3.41,10.06,6.92,17.95,8,18.47Zm.43-13.97c-4.29,2.28-11.47-7.61-10.62-24.3,4.47,13.28,9.18,23.65,10.62,24.3Zm-53.44,77.55c2.05-4.28,13.34-1.42,22.29,11.25-11.15-6.97-20.77-11.68-22.29-11.25Z" fill="#67923d" stroke="#24420e" stroke-width=".16"/><path d="m522.14,368.01c4.61,1.65,10.59-9.73,7.65-26.74-2.85,14.42-6.27,25.89-7.65,26.74Z" fill="#406325" stroke="#24420e" stroke-width=".16"/><path d="m532.56,362.6c4.4-6.87,5.63-25.36,4.64-27.86-10.08,14.04-9.54,27.19-4.64,27.86Zm-32.14,18.12c-2.15,4.22,6.79,11.81,22.1,11.69-12.12-5.05-21.54-10.19-22.1-11.69Zm.16-8.32c3.84,3.45,14-5.11,17.66-22.81-8.24,12.83-15.95,22.52-17.66,22.81h0Zm43.31-19.27c1.83,4.05,12.88.95,21.95-11.52-11.04,7.06-20.53,11.89-21.95,11.52Zm26.11-55.09c3.35,2.22,10.48-5.48,11.72-19.42-5.29,10.74-10.41,19.02-11.72,19.42Zm-11.86,39.37c.91,4.49,12.63,4.32,24.66-5.68-12.68,4.1-23.33,6.42-24.66,5.68Zm10.51-25.45c2.49,3.52,12.03-1.38,17.91-14.83-8.73,8.65-16.51,14.92-17.91,14.83Zm-1.53-47.06c4.3,2.08,11.22-8.21,10.04-24.89-4.14,13.56-8.58,24.18-10.04,24.89Zm-7.06-26.72c3.59.1,5.49-9.33-.14-20.65.96,10.84.93,19.71.14,20.65Zm-4.29-2.31c4.03-1.8,1.35-13.13-10.57-22.7,6.56,11.38,11.01,21.25,10.57,22.7Zm11.77,35.81c3.22,3.07,10.29-1.1,14.36-15.84-7.91,10.42-12.87,15.67-14.36,15.84Zm-34.57,92.88c1.02,5.42,15.12,5.16,29.54-6.91-15.15,5.01-27.9,7.85-29.54,6.91Zm6.99-7.99c3.32-5.1,4.33-18.88,3.61-20.74-7.59,10.41-7.26,20.22-3.61,20.74Zm19.88-29.55c3.62-5.98,3.93-21.6,2.96-23.71-8.38,12.2-7.36,23.33-2.96,23.71Z" fill="#406325" stroke="#24420e" stroke-width=".16"/><path d="m532.52,362.54c-4.9-.66-5.41-13.75,4.62-27.76-3.68,14.31-5.54,26.28-4.62,27.76Zm35.66-70.59c-.96-8.02,4.03-20.81,6.73-23.27,2.61,14.86-2.7,24.74-6.73,23.27Zm-28.23,64.55c-3.65-.52-3.96-10.28,3.59-20.67-2.82,10.65-4.27,19.56-3.59,20.67Zm23.69-107.68c-2.2-6.08.03-20.7,1.25-22.49,5.36,12.66,2.68,22.85-1.25,22.49Zm-58.9,124.12c2.51-8.36,16.42-21.78,19.07-22.64-4.4,18-15.28,26.37-19.07,22.64Zm55.3-42.96c2.7-6.47,15.01-15.97,17.22-16.36-5.02,14.09-14.45,19.78-17.22,16.36Zm-.12-3.13c-4.39-.38-5.41-11.4,2.97-23.6-2.7,12.25-3.84,22.39-2.97,23.6Z" fill="#67923d" stroke="#24420e" stroke-width=".16"/><path d="m568.23,293.85c5.23,1.9,9.21-10.22,6.69-24.7-2.46,12.47-5.45,23.98-6.69,24.7Z" fill="#406325" stroke="#24420e" stroke-width=".16"/><path d="m569.01,293.44c.56-7.78-7.03-23.85-9.04-25.52-2.04,16.32,4.53,27.18,9.04,25.52Zm-5.29-44.65c3.89.35,6.56-9.75,1.2-22.41.33,11.82-.29,21.43-1.2,22.41Zm-58.87,124.07c3.84,3.74,14.57-4.56,18.97-22.56-8.96,12.76-17.21,22.33-18.97,22.56h0Zm55.41-42.86c2.77,3.41,12.1-2.23,17.11-16.36-8.25,9.41-15.69,16.33-17.11,16.36Z" fill="#406325" stroke="#24420e" stroke-width=".16"/><path d="m568.9,293.32c-4.48,1.69-11-9.05-8.96-25.37,3.56,13.7,7.55,24.55,8.96,25.37Z" fill="#67923d" stroke="#24420e" stroke-width=".16"/><ellipse cx="565.82" cy="253.42" rx="1.1" ry="1.12" fill="#ba1f3e" stroke="#511124" stroke-width=".22"/><ellipse cx="569.67" cy="265.73" rx="1.1" ry="1.12" fill="#ba1f3e" stroke="#511124" stroke-width=".22"/><ellipse cx="571.03" cy="304.45" rx="1.3" ry="1.32" fill="#ba1f3e" stroke="#511124" stroke-width=".22"/><ellipse cx="565.85" cy="297.21" rx="1.3" ry="1.32" fill="#ba1f3e" stroke="#511124" stroke-width=".22"/><ellipse cx="550.9" cy="338.4" rx="1.3" ry="1.32" fill="#ba1f3e" stroke="#511124" stroke-width=".22"/><ellipse cx="557.28" cy="341.22" rx="1.3" ry="1.32" fill="#ba1f3e" stroke="#511124" stroke-width=".22"/><ellipse cx="514.28" cy="374.65" rx="1.3" ry="1.32" fill="#ba1f3e" stroke="#511124" stroke-width=".22"/><ellipse cx="507.18" cy="379.85" rx="1.3" ry="1.32" fill="#ba1f3e" stroke="#511124" stroke-width=".22"/><ellipse cx="558.15" cy="247.58" rx="1.1" ry="1.12" fill="#ba1f3e" stroke="#511124" stroke-width=".22"/><g id="N"><path d="m433.6,337.47c-.14,1.1.85,2.42,2.16,2.14.39-.08.63-.6.13-.51-.43.11-.89-.07-1.22-.39-.61-.58-.66-1.4-.4-1.98l-.67.73h0s0,0,0,0Z" fill="#8c959d" stroke="#485654" stroke-width=".11"/><path d="m436.64,339.61c-1.03,1.2-2.6,1.73-3.48.86-.58-.58-.79-1.25-.47-1.98l-1.14,1.27c.05.09.73,1.35,1.73,1.82,1.24.57,3.01-.29,4.07-1.62.75-.94,1.58-2.51.98-3.73-.37-.75-1.26-1.47-1.99-1.76l-1.04,1.14c.52-.25,1.16-.14,1.72.32,1.29,1.07.54,2.58-.38,3.66h0s0,0,0,0Z" fill="#8c959d" stroke-width="0"/><path d="m436.64,339.61c-.33.4-.73.74-1.18.99s-.97.4-1.49.33c-.26-.04-.51-.14-.72-.31-.21-.17-.38-.37-.52-.6-.14-.23-.23-.49-.25-.76-.02-.27.04-.55.14-.79l.12.08-1.13,1.28v-.1c.29.49.64.97,1.07,1.34.21.18.45.35.7.45s.53.15.81.14c.56-.02,1.1-.21,1.6-.49.49-.28.94-.65,1.32-1.08.38-.43.7-.91.95-1.43.24-.52.42-1.08.38-1.65-.02-.28-.09-.55-.23-.8s-.31-.47-.51-.68c-.4-.41-.87-.75-1.39-.96l.09-.02-1.05,1.13-.09-.12c.24-.11.5-.15.76-.12.26.03.5.12.73.25.43.27.81.67.94,1.18s0,1.04-.21,1.5c-.22.46-.52.87-.85,1.24h0s0,0,0,0Zm0,0c.32-.39.6-.81.8-1.27s.31-.97.17-1.45-.5-.85-.91-1.1-.94-.32-1.37-.1l-.09-.12,1.03-1.15.04-.04.05.02c.56.22,1.05.57,1.47.99.21.21.4.45.54.72s.23.58.25.88c.04.62-.14,1.22-.39,1.76-.26.54-.58,1.04-.97,1.49-.4.45-.86.82-1.38,1.12-.52.29-1.09.49-1.69.51-.3,0-.6-.04-.89-.16s-.53-.29-.75-.49c-.44-.4-.81-.88-1.09-1.41l-.03-.06.04-.05,1.15-1.26.12.08c-.1.23-.16.48-.14.72s.09.49.22.7.29.42.48.58.42.26.67.3c.49.08,1.01-.05,1.46-.28s.86-.56,1.2-.94h0Z" fill="#485654" stroke-width="0"/><path d="m515.74,247.58l-40.71,40.82c-3.1,3.13-38.5,37.58-41.69,40.68l-4.63,5.53c-2.16,2.39-4.5,5.51-7.3,8.3-.5.64-1.16.41-1.76.76-1.84,1.08-3.75,2.96-5.12,4.51l-12.38,13.95c-.8.88-1.01,1.43-.47,1.93l6.72,9.14c1.25,1.25,2.68,1.9,3.24.85,3.19-5.63,11.12-14.21,14.11-21.01,1.79-4.06,4.03-11.42,5.64-13.2,1.97-2.23,7.27-7.99,11.97-13.12l.94-1.03.96-1.05,71.52-75.99c-.79-.8-.29-.32-1.06-1.07h0Z" fill="#6c301e" stroke="#351710" stroke-linejoin="round" stroke-width=".22"/><path d="m431.21,329.04c-1.24.04-2.05-.73-2.89-1.45,1.19.36,2.38.82,3.5.35l-.61,1.1h0Z" fill="#8c959d" stroke="#485654" stroke-width=".11"/><path d="m558.14,217.47l-32.25,27.08c-.31.39-.63.28-.94,0l-2.94-2.5s.01-.07.01-.11c0-.17-.03-.33-.08-.48l1.44-1.49c.18-.23.12-.32-.12-.56l-.6-.62c-.23-.18-.42-.04-.65.18l-1.45,1.52c-.74.03-1.35.65-1.37,1.41l-55.72,55.65-22.89,22.26c-.82,1.08-4.35,3-6.69,4.56-.83.55-1.54,1.05-1.84,1.59l-1.87,5.61c-.59,1.23-2.47,4.14-2.55,4.33l3.92,3.85c1.84-2.09,6.78-7.35,11.27-12.24.36-.39.38-.44.84-1-.42-.61-.9-1.18-1.41-1.71-.4-.39-.84-.79-1.22-1.13-.25-.22-.47-.4-.64-.56s.24-.46.43-.66l79.38-79.12c.13.04.27.06.4.06.22,0,.44-.05.64-.15l2.83,3.31c.66.67,1.23.66,1.76.41l32.31-29.48h0Z" fill="#b2b6ba" stroke="#485654" stroke-width=".22"/><path d="m430.26,331.4c.2.03.41.04.61.03.2-.02.4-.07.58-.17l-.02.02.72-2.46.77-2.44v.03c-.19-.23-.44-.43-.74-.51.3.06.57.25.78.48h.01s0,.03,0,.03l-.72,2.46-.76,2.44h0s-.01.02-.01.02c-.19.1-.4.14-.61.15-.21,0-.41-.03-.62-.07h0Z" fill="#485654" stroke-width="0"/><ellipse cx="437.59" cy="329.07" rx=".63" ry=".64" fill="none" stroke="#485654" stroke-width=".16"/><ellipse cx="433.79" cy="332.94" rx=".63" ry=".64" fill="none" stroke="#485654" stroke-width=".16"/><path d="m440.42,323.13c-.32-.25-.62-.52-.92-.8l-.84-.88c.32.25.63.52.92.8l.84.88Z" fill="#485654" stroke-width="0"/><path d="m502.48,257.72l3.54,3.52.65-.61-3.54-3.52-.65.6Z" fill="#8c959d" stroke="#485654" stroke-width=".11"/></g><g id="N-2"><path d="m523.82,339.28c.08,1.11-.97,2.37-2.26,2.03-.39-.1-.6-.63-.11-.51.43.13.89-.03,1.24-.32.63-.55.73-1.36.5-1.96l.63.77h0s0,0,0,0Z" fill="#8c959d" stroke="#485654" stroke-width=".11"/><path d="m520.69,341.26c.97,1.25,2.52,1.86,3.43,1.04.61-.55.85-1.2.57-1.95l1.07,1.33c-.05.09-.79,1.31-1.82,1.73-1.27.51-3-.44-3.99-1.82-.7-.98-1.46-2.58-.8-3.77.41-.73,1.33-1.41,2.08-1.65l.98,1.19c-.5-.27-1.16-.2-1.73.24-1.34,1-.67,2.55.2,3.68h0s0,0,0,0Z" fill="#8c959d" stroke-width="0"/><path d="m520.69,341.26c.31.41.69.78,1.13,1.05s.95.45,1.48.4c.26-.02.52-.11.74-.27.21-.16.39-.35.55-.57.15-.22.25-.48.29-.75.03-.27-.01-.55-.1-.8l-.13.08,1.06,1.34v-.1c-.31.48-.69.94-1.13,1.29-.22.17-.46.32-.72.42s-.54.12-.81.1c-.56-.04-1.09-.27-1.57-.57-.48-.31-.91-.69-1.26-1.14-.36-.45-.65-.95-.88-1.48-.22-.53-.36-1.1-.3-1.66.03-.28.12-.55.27-.79s.33-.46.54-.65c.42-.39.91-.71,1.44-.89l-.09-.03.99,1.18.09-.12c-.23-.12-.5-.18-.76-.16-.26.02-.51.09-.74.22-.45.24-.84.63-1,1.13s-.05,1.04.14,1.5c.19.47.48.89.79,1.29h0s0,0,0,0Zm0,0c-.3-.4-.56-.84-.74-1.3s-.26-.99-.1-1.46.54-.83.97-1.05.95-.27,1.37-.04l.09-.12-.97-1.2-.04-.05-.06.02c-.57.19-1.07.51-1.51.92-.22.2-.42.43-.58.69s-.26.56-.3.87c-.07.61.08,1.22.3,1.77.23.55.53,1.07.9,1.54.37.47.82.87,1.32,1.18.5.31,1.07.55,1.67.59.3.02.61,0,.9-.11s.54-.27.78-.45c.46-.38.85-.84,1.16-1.35l.03-.05-.04-.05-1.09-1.32-.13.08c.09.23.13.48.11.73s-.12.48-.25.69-.31.4-.51.55-.43.24-.68.27c-.5.06-1-.1-1.44-.36s-.83-.6-1.15-1h0Z" fill="#485654" stroke-width="0"/><path d="m446.16,245.35l38.67,42.82c2.94,3.28,36.62,39.48,39.66,42.74l4.35,5.76c2.04,2.49,4.23,5.73,6.89,8.65.47.66,1.14.46,1.72.85,1.78,1.18,3.6,3.15,4.9,4.77l11.69,14.56c.75.92.94,1.47.38,1.95l-7.15,8.79c-1.31,1.19-2.77,1.76-3.28.68-2.91-5.78-10.41-14.76-13.07-21.69-1.59-4.14-3.47-11.61-4.99-13.47-1.85-2.32-6.87-8.34-11.32-13.71l-.89-1.08-.91-1.1-67.74-79.5c.83-.76.31-.31,1.11-1.02h0Z" fill="#6c301e" stroke="#351710" stroke-linejoin="round" stroke-width=".22"/><path d="m526.62,330.98c1.24.11,2.08-.63,2.96-1.3-1.2.3-2.42.7-3.51.17l.56,1.13h0Z" fill="#8c959d" stroke="#485654" stroke-width=".11"/><path d="m405.27,213.13l30.9,28.68c.29.4.62.31.94.05l3.05-2.35s-.01-.08,0-.11c0-.17.05-.33.11-.47l-1.37-1.57c-.17-.24-.11-.33.15-.56l.63-.59c.24-.17.42-.01.64.22l1.38,1.6c.74.07,1.32.72,1.3,1.48l52.94,58.39,21.78,23.39c.76,1.12,4.2,3.22,6.46,4.89.8.59,1.49,1.13,1.76,1.68l1.59,5.7c.53,1.26,2.26,4.25,2.33,4.45l-4.1,3.65c-1.74-2.18-6.42-7.68-10.66-12.8-.34-.41-.36-.45-.8-1.04.45-.59.95-1.13,1.49-1.63.42-.37.87-.75,1.27-1.07.26-.21.49-.38.66-.53s-.22-.47-.4-.68l-75.44-83.03c-.13.03-.27.04-.4.04-.22-.01-.44-.08-.63-.19l-2.98,3.17c-.7.64-1.26.6-1.78.32l-30.84-31.08h0Z" fill="#b2b6ba" stroke="#485654" stroke-width=".22"/><path d="m527.46,333.38c-.2.02-.41.02-.62,0-.2-.03-.4-.09-.57-.2l.02.02-.6-2.49-.65-2.48v.03c.2-.22.46-.41.76-.47-.31.04-.58.22-.8.44h-.01s0,.03,0,.03l.6,2.49.64,2.48h0s.01.02.01.02c.18.1.39.16.6.18.21,0,.42,0,.62-.04h0Z" fill="#485654" stroke-width="0"/><ellipse cx="520.25" cy="330.68" rx=".63" ry=".64" fill="none" stroke="#485654" stroke-width=".16"/><ellipse cx="523.85" cy="334.74" rx=".63" ry=".64" fill="none" stroke="#485654" stroke-width=".16"/><path d="m517.71,324.6c.34-.23.65-.49.96-.75l.89-.84c-.33.23-.65.49-.96.75l-.89.84Z" fill="#485654" stroke-width="0"/><path d="m458.9,256.14l-3.7,3.34-.62-.64,3.7-3.34.62.64Z" fill="#8c959d" stroke="#485654" stroke-width=".11"/></g><path d="m433.26,367.52c-7.98-3.43-27.27-.69-29.63.96,16.52,8.28,29.96,4.72,29.63-.96Zm90.28,3.43c7.98-3.43,27.27-.69,29.63.96-16.52,8.25-29.96,4.72-29.63-.96Z" fill="#67923d" stroke="#24420e" stroke-width=".16"/><path d="m433.11,367.65c.33,5.69-12.97,9.18-29.49.93,15.51.96,28.19.39,29.49-.93Zm90.58,3.4c-.33,5.69,12.97,9.18,29.49.93-15.51.96-28.19.42-29.49-.93Z" fill="#406325" stroke="#24420e" stroke-width=".16"/><g id="O"><path d="m508.89,361.98c-21.03-31.11-52.73-56.41-77.18-70.23,3.61-.17,11.62,4.01,14.88,6.15,24.28,15.94,44.93,36.98,66.59,61.8-1.28,1.29-2.11,2.05-3.49,3.15l-.8-.86h0Z" fill="#b2b6ba" stroke="#485654" stroke-width=".22"/><path d="m510.98,361.73l-1.47,1.44c-23.34-30.6-55.87-59.86-77.75-71.41,30.51,14.31,56.18,43.15,79.14,69.88l.09.09h0Z" fill="#8c959d" stroke-width="0"/><path d="m510.99,361.73l-1.47,1.44h0s0,0,0,0c-5.4-7.05-11.13-13.83-17.1-20.38s-12.18-12.88-18.63-18.94-13.13-11.87-20.09-17.31c-3.48-2.72-7.04-5.34-10.69-7.81s-7.4-4.81-11.29-6.86l.1-.2c8,3.76,15.56,8.47,22.69,13.72s13.87,11.07,20.31,17.18,12.6,12.54,18.59,19.11,11.79,13.32,17.59,20.07h0Zm0,0l-17.67-19.99c-6-6.56-12.16-12.97-18.61-19.07s-13.18-11.9-20.32-17.14c-7.14-5.24-14.68-9.92-22.68-13.67l.1-.2c3.9,2.07,7.65,4.41,11.3,6.89s7.21,5.11,10.69,7.84c6.96,5.45,13.63,11.28,20.08,17.35,6.44,6.08,12.65,12.41,18.61,18.98,5.95,6.57,11.65,13.38,17.03,20.45h0l1.47-1.44h0Z" fill="#485654" stroke-width="0"/><path d="m518.03,356.89c-2,.53-3.78,1.29-5.33,2.3-.23,1.44-1.98,3.06-3.64,3.42l-.6-.8c-.04-.05-.1-.08-.17-.04l-.58.35c-.62-.11-1.36.2-1.68,1.01-.38,1,.39,2.32,1.24,3.19.94.75,1.41,1.1,2.49.95,1.1-.23,1.7-1.25,1.95-1.58,3.77,4.65,6.61,7.16,11.39,10.99,2.13.02,3.27-1.35,2.56-2.9-.24-.52-.85-.86-1.35-.67.04-.16.02-.32,0-.47,2.5-2.34,3.56-5.26.93-10.2-2.26-4.16-4.78-5.58-7.19-5.56h-.01,0Zm6.33,4.68c.44.77.7,1.43,1.04,2.12,1.5,3.1.2,6.82-2.37,7.96-.12,0-.09-.02-.22.02.42-.71-.84-2.23-1.48-1.69.3-.78-.68-2.09-1.48-1.75.42-.73-.54-1.97-1.44-1.57.46-.79-.33-1.93-1.26-1.72.28-.84-.42-1.81-1.37-1.65.08-.75-.16-1.16-.51-1.5,1.13-.87,2.38-2.22,3.49-2.83,2.76-1.22,4.47,1.11,5.61,2.6h0Z" fill="#fab81c" stroke="#6c301e" stroke-width=".22"/><path d="m525.53,364.85c-.52-.26-.77-.79-.6-1.14s.71-.45,1.23-.18.81.77.64,1.12-.76.46-1.28.2h0Z" fill="#fab81c" stroke="#6c301e" stroke-width=".11"/><path d="m525.22,363.79c-.52-.26-.77-.79-.6-1.14s.71-.45,1.23-.18.81.77.64,1.12-.76.46-1.28.2h0s0,0,0,0Z" fill="#fab81c" stroke="#6c301e" stroke-width=".11"/><path d="m524.59,362.63c-.52-.26-.77-.79-.6-1.14s.71-.45,1.23-.18.81.77.64,1.12-.76.46-1.28.2h0Z" fill="#fab81c" stroke="#6c301e" stroke-width=".11"/><path d="m523.8,361.57c-.52-.26-.77-.79-.6-1.14s.71-.45,1.23-.18.81.77.64,1.12-.76.46-1.28.2h0Z" fill="#fab81c" stroke="#6c301e" stroke-width=".11"/><path d="m522.76,360.55c-.52-.26-.77-.79-.6-1.14.02-.05,0-.14.06-.12.21.11.65.19.6-.14-.06-.12-.15-.23-.07-.15.15,0,.47.14.64.23.52.26.81.77.64,1.12s-.76.46-1.28.2h0s0,0,0,0Z" fill="#fab81c" stroke="#6c301e" stroke-width=".11"/><path d="m511.71,365.71c.69-1.83,2.08-3.53,3.56-3.93m-3.32,4.19c1.28.27,3.36-1.28,3.86-2.67m-2.65,4.17c1.68.39,3.34-1.26,3.99-2.49m-2.48,4.12c1.98.07,3.21-1.37,3.79-2.47m-2.26,4.05c1.68.01,3.22-1.4,3.7-2.5m-2.22,3.95c1.83-.08,3.13-.92,3.67-2.14m-2.01,3.61c1.68.1,3.05-.93,3.49-1.92m-1.69,3.42c1.68.1,2.73-.96,3.18-1.96" fill="#fab81c" stroke-width="0"/><path d="m511.71,365.71c.14-.44.33-.86.55-1.26.22-.4.48-.79.78-1.14.3-.35.63-.68,1-.95s.79-.48,1.23-.58c-.43.14-.82.37-1.18.65-.36.28-.68.6-.97.95-.59.7-1.04,1.49-1.41,2.33h0Z" fill="#6c301e" stroke-width="0"/><path d="m511.95,365.96c.41.06.82-.05,1.2-.2.38-.16.73-.36,1.06-.61.33-.24.64-.52.91-.83s.52-.65.69-1.03c-.12.4-.36.77-.62,1.09s-.58.61-.91.86c-.34.24-.7.46-1.1.6s-.82.23-1.23.12h0Zm1.21,1.5c.41.07.83.04,1.22-.09.39-.12.76-.32,1.09-.57.34-.24.64-.52.92-.83.28-.31.53-.64.75-1-.18.38-.41.74-.69,1.06-.27.32-.58.61-.92.86-.35.24-.72.45-1.13.56s-.84.13-1.24,0h0Zm1.51,1.63c.4-.01.79-.07,1.16-.19s.73-.3,1.05-.52c.32-.23.62-.49.88-.79.26-.3.5-.62.7-.97-.34.74-.86,1.38-1.52,1.85-.33.23-.7.4-1.09.51-.39.11-.79.14-1.19.11h0Zm1.53,1.58c.78-.04,1.51-.34,2.14-.79.32-.22.61-.48.87-.76.27-.28.5-.6.68-.95-.14.37-.36.71-.62,1.01-.26.3-.55.57-.87.8-.33.22-.68.41-1.05.54s-.77.19-1.16.16h0Zm1.48,1.45c.37-.04.73-.1,1.09-.19.36-.09.7-.23,1.03-.4.33-.17.63-.39.89-.65.26-.26.49-.57.66-.9-.13.35-.34.68-.6.96-.26.28-.57.51-.9.69-.67.34-1.42.51-2.17.49h0Zm1.66,1.47c.35,0,.69-.04,1.03-.12.34-.08.66-.21.97-.37.31-.16.59-.36.85-.6s.48-.51.64-.83c-.13.33-.34.63-.59.89-.25.25-.54.47-.85.64-.32.16-.65.29-1,.36s-.7.08-1.05.04h0Zm1.81,1.5c.33,0,.66-.04.97-.12.32-.08.62-.21.89-.39.28-.17.53-.39.75-.63.22-.25.41-.52.57-.82-.23.63-.69,1.18-1.26,1.54-.29.18-.6.3-.93.37-.33.07-.66.08-.99.04h0Z" fill="#6c301e" stroke-width="0"/></g><g id="O-2"><path d="m449.68,359.33c22.81-29.78,55.93-53.12,81.14-65.44-3.59-.39-11.84,3.3-15.21,5.23-25.17,14.44-47.01,34.2-70.08,57.66,1.2,1.36,1.99,2.17,3.3,3.36l.85-.81h0Z" fill="#b2b6ba" stroke="#485654" stroke-width=".22"/><path d="m447.61,358.96l1.38,1.53c25.08-29.13,59.27-56.37,81.78-66.58-31.29,12.44-58.59,39.67-83.08,64.97l-.09.08h0Z" fill="#8c959d" stroke-width="0"/><path d="m447.6,358.96l1.38,1.53h0s0,0,0,0c5.8-6.71,11.92-13.13,18.26-19.31s12.91-12.12,19.7-17.78c6.79-5.66,13.8-11.06,21.07-16.07,3.64-2.5,7.34-4.9,11.13-7.15s7.67-4.35,11.67-6.17l-.09-.21c-8.21,3.27-16.02,7.51-23.45,12.32s-14.49,10.21-21.28,15.92-13.31,11.75-19.67,17.95-12.55,12.58-18.73,18.97h0Zm0,0l18.8-18.89c6.37-6.18,12.9-12.21,19.69-17.91,6.79-5.7,13.85-11.08,21.28-15.88,7.43-4.8,15.24-9.01,23.43-12.27l-.09-.21c-4.01,1.83-7.89,3.94-11.68,6.19s-7.49,4.67-11.13,7.17c-7.27,5.02-14.27,10.43-21.06,16.11-6.78,5.68-13.35,11.62-19.68,17.81-6.32,6.2-12.41,12.66-18.19,19.39h0s-1.39-1.52-1.39-1.52h0Z" fill="#485654" stroke-width="0"/><path d="m440.85,353.71c1.97.65,3.7,1.52,5.19,2.62.15,1.45,1.8,3.17,3.43,3.64l.65-.76s.11-.07.17-.03l.56.38c.62-.07,1.34.29,1.62,1.11.32,1.02-.53,2.29-1.43,3.11-.98.69-1.47,1.02-2.54.8-1.08-.3-1.63-1.35-1.86-1.69-4.04,4.41-7.02,6.75-12.01,10.28-2.12-.11-3.19-1.54-2.38-3.05.27-.5.9-.81,1.39-.59-.03-.16,0-.32.03-.47-2.36-2.49-3.25-5.46-.33-10.24,2.49-4.02,5.1-5.28,7.5-5.11h.01s0,0,0,0Zm-6.6,4.29c-.49.74-.78,1.38-1.16,2.05-1.68,3-.6,6.8,1.9,8.09.12,0,.09-.02.21.04-.38-.73.97-2.17,1.58-1.6-.26-.8.8-2.04,1.58-1.66-.38-.75.65-1.93,1.53-1.48-.42-.82.44-1.9,1.36-1.64-.23-.86.53-1.78,1.47-1.56-.04-.75.23-1.15.6-1.46-1.08-.94-2.25-2.36-3.32-3.03-2.68-1.38-4.52.84-5.75,2.26h0s0,0,0,0h0Z" fill="#fab81c" stroke="#6c301e" stroke-width=".22"/><path d="m432.91,361.19c.54-.23.81-.74.66-1.1s-.68-.49-1.22-.26-.86.72-.71,1.08.73.51,1.27.28h0Z" fill="#fab81c" stroke="#6c301e" stroke-width=".11"/><path d="m433.27,360.16c.54-.23.81-.74.66-1.1s-.68-.49-1.22-.26-.86.72-.71,1.08.73.51,1.27.28h0s0,0,0,0Z" fill="#fab81c" stroke="#6c301e" stroke-width=".11"/><path d="m433.97,359.03c.54-.23.81-.74.66-1.1s-.68-.49-1.22-.26-.86.72-.71,1.08.73.51,1.27.28h0Z" fill="#fab81c" stroke="#6c301e" stroke-width=".11"/><path d="m434.82,358.03c.54-.23.81-.74.66-1.1s-.68-.49-1.22-.26-.86.72-.71,1.08.73.51,1.27.28h0Z" fill="#fab81c" stroke="#6c301e" stroke-width=".11"/><path d="m435.92,357.07c.54-.23.81-.74.66-1.1-.02-.05,0-.14-.05-.12-.22.1-.66.15-.6-.18.07-.11.16-.23.08-.14-.15,0-.48.11-.66.19-.54.23-.86.72-.71,1.08s.73.51,1.27.28h0s0,0,0,0Z" fill="#fab81c" stroke="#6c301e" stroke-width=".11"/><path d="m446.65,362.89c-.58-1.87-1.87-3.65-3.32-4.14m3.07,4.38c-1.29.19-3.28-1.48-3.7-2.9m2.4,4.32c-1.7.29-3.26-1.46-3.84-2.73m2.23,4.26c-1.99-.05-3.12-1.56-3.64-2.69m2.02,4.18c-1.68-.09-3.13-1.6-3.54-2.72m1.98,4.08c-1.83-.19-3.07-1.11-3.54-2.36m1.79,3.73c-1.69,0-2.99-1.11-3.37-2.13m1.48,3.52c-1.69,0-2.67-1.12-3.06-2.15" fill="#fab81c" stroke-width="0"/><path d="m446.65,362.89c-.12-.44-.28-.88-.48-1.3-.2-.42-.44-.81-.71-1.19-.28-.37-.59-.71-.94-1s-.76-.53-1.19-.65c.42.17.8.42,1.14.72.34.3.64.64.91,1.01.54.73.95,1.55,1.27,2.41h0Z" fill="#6c301e" stroke-width="0"/><path d="m446.4,363.13c-.41.03-.82-.1-1.18-.27-.37-.18-.71-.41-1.03-.68-.32-.26-.61-.56-.86-.88s-.48-.68-.62-1.07c.1.41.31.79.56,1.13s.54.64.86.92c.32.26.68.5,1.06.67s.81.27,1.22.19h0Zm-1.29,1.42c-.41.05-.83-.01-1.21-.16-.38-.15-.74-.37-1.06-.63-.32-.26-.61-.56-.87-.89-.26-.32-.5-.68-.69-1.05.16.39.37.76.63,1.1.25.34.55.65.87.92.33.26.7.49,1.1.62s.83.18,1.24.08h0Zm-1.6,1.54c-.4-.04-.78-.11-1.15-.26s-.71-.34-1.02-.59c-.31-.24-.59-.53-.83-.84-.24-.32-.46-.65-.65-1.01.3.76.78,1.43,1.41,1.94.32.25.67.45,1.05.58.38.13.78.19,1.18.18h0Zm-1.62,1.48c-.77-.09-1.49-.43-2.09-.92-.3-.24-.58-.51-.83-.81-.25-.3-.46-.63-.62-.99.12.38.32.73.56,1.04.24.32.52.6.83.85.31.24.65.45,1.02.6s.75.23,1.14.23h0Zm-1.56,1.35c-.37-.06-.73-.14-1.08-.26-.35-.11-.69-.27-1-.46-.32-.19-.6-.43-.85-.7-.25-.28-.45-.59-.61-.94.11.36.3.7.54,1,.25.29.54.54.86.74.65.38,1.39.6,2.14.62h0Zm-1.75,1.36c-.35-.02-.69-.08-1.02-.19-.33-.1-.65-.25-.94-.43-.3-.18-.57-.4-.81-.65s-.45-.54-.6-.86c.11.34.3.65.53.92.24.27.51.5.82.69.31.18.63.33.98.42s.7.13,1.05.1h0Zm-1.89,1.39c-.33-.02-.65-.08-.97-.18-.31-.1-.6-.25-.87-.44-.27-.18-.5-.42-.71-.68-.21-.26-.38-.55-.52-.85.2.65.62,1.22,1.16,1.62.28.19.58.34.91.43.32.09.66.12.99.1h0Z" fill="#6c301e" stroke-width="0"/></g><path d="m408.24,238.05c7.31-2.45,19-15.96,19.75-18.51-15.81,4.29-23.08,14.82-19.75,18.51h0Zm147.8,4.86c-1.73-7.28-13.47-19.64-15.79-20.57,2.8,15.66,12.08,23.51,15.79,20.57Z" fill="#406325" stroke="#24420e" stroke-width=".16"/><path d="m408.24,238.05c-3.37-3.69,3.84-14.12,19.61-18.41-11.11,8.68-19.47,16.71-19.61,18.41h0Zm147.8,4.86c-3.71,2.99-12.9-4.81-15.71-20.42,7.26,11.44,14.13,20.15,15.71,20.42Z" fill="#67923d" stroke="#24420e" stroke-width=".16"/><path d="m451.82,318.7s-6.25.68-8-8.09c-1.87-9.39,5.38-10.38,5.38-10.38,0,0,8.22-.81,13.34-.94l2.27,18.55-12.99.87h0Z" fill="url(#radial-gradient)" stroke="#999270" stroke-width=".16"/><path d="m452.64,315.87s-4.04.79-4.88-5.74c-.59-4.62,2.22-5.28,2.22-5.28l9.37,1.62.05,8.51-6.76.88h0Z" fill="url(#radial-gradient-2)" stroke="#999270" stroke-width=".16"/><path d="m449.98,304.86l9.12-.86,1.3,5.9-7.2.46s-.49-5.33-3.21-5.5h0Z" fill="url(#radial-gradient-3)" stroke="#999270" stroke-width=".16"/><path d="m448.72,300.38s7.68-1.92,8.64,6.7c.25,2.25-.95,7.4-4.72,8.8l14.07-1.51-1.27-15.5-4.74.4s-10.06.35-11.97,1.11h0Z" fill="url(#radial-gradient-4)" stroke="#999270" stroke-width=".16"/><path d="m451.81,318.7s52.64-3.61,58.03-3.38c15.97-8.92-.08-43.96-13.53-63.56,1.54-4.42-30.28-14.35-44.67-13.45l-5.23.37c-7.8.84-7.89,11.05-4.7,17.48,3.09,6.24,30.74,56.95,11.3,62.31l-1.19.24h0Z" fill="#f9f0aa" stroke="#999270" stroke-width=".16"/><path d="m508.18,272.47c-3.42-7.21-7.4-14.13-11.88-20.71,1.54-4.42-30.28-14.35-44.67-13.45l-5.23.37c-7.8.84-7.89,11.05-4.7,17.48.97,1.96,4.36,8.3,7.96,16.25" fill="url(#linear-gradient)" stroke="#999270" stroke-width=".16"/><path d="m454.69,284.46c5.63,15.13,8.79,31.11-1.66,33.99l-1.19.24s52.64-3.61,58.03-3.38c8.66-4.84,7.9-17.36,3.25-30.93" fill="url(#linear-gradient-2)" stroke="#999270" stroke-width=".16"/><path d="m446.94,241.63c-3.76,0-4.72,3.68-4.67,6.01.14,6.1,4.67,6.4,4.67,6.4l6.05-.34,2.9-12.56-8.95.5Z" fill="url(#radial-gradient-5)" stroke="#999270" stroke-width=".16"/><path d="m446.94,241.67l8.95-.5.92,9.39-7.8.35s2.53-7.52-2.06-9.23h0Z" fill="url(#linear-gradient-3)" stroke="#999270" stroke-width=".16"/><path d="m496.35,251.76c6.78-1.11,6.69-10.4,2.05-14.12-15.72-.59-36.4-.15-51.35.99,1.7-.05,6.43.39,6.95,6.73.25,2.96-1.18,5.67-3.1,7.22-1.88,1.51-3.96,1.51-3.96,1.51.25.1,2.19,0,3.65-.09.75-.05,2.59-.27,3.1-.34,21.31-2.85,42.58-1.88,42.58-1.88h.08s0,0,0,0Z" fill="url(#linear-gradient-4)" stroke="#999270" stroke-width=".16"/><path d="m458.17,266.35c-.15-.34-.33-.77-.74-.83-.25.02-.66-.05-.58-.4.24-.12.54-.04.81-.07.57.01,1.13-.12,1.69-.15.34.1.26.56-.11.48-.41.1-.18.58-.08.84l1.35,3.21c.13.31.39.59.73.63.37.04.77.05,1.11-.12.32-.21.25-.64.2-.97-.13-.37.55-.29.5.05l.45,1.31c-.02.21-.28.15-.43.17l-3.02.23c-.32-.02-.81.29-1.01-.1-.12-.4.52-.17.6-.48,0-.34-.2-.64-.31-.95l-1.19-2.84h0Zm4.9-.35c-.14-.33-.31-.74-.7-.82-.25-.02-.66-.02-.62-.39.16-.17.46-.06.68-.1.6.02,1.19-.09,1.78-.15.29-.03.4.54.03.46-.36.01-.39.42-.24.67l1.46,3.53c.11.25.24.57.55.61.26.05.66-.03.71.33-.04.28-.44.12-.64.17-.53-.04-1.06.03-1.58.12-.23.07-.56.03-.57-.28.05-.28.59-.07.62-.41-.04-.34-.22-.64-.33-.95l-1.15-2.78h0Zm4.52.73c.09.23.41.07.59.08.27-.03.55-.22.53-.53-.04-.47-.27-.94-.64-1.22-.35-.25-.79-.22-1.19-.17-.02.16.1.31.15.47l.56,1.37h0Zm.68,1.65c.17.36.28.77.57,1.05.25.18.58.1.86.07.31-.02.49-.34.39-.63-.14-.66-.56-1.34-1.26-1.48-.3-.05-.63-.07-.93,0-.02.15.09.3.14.44l.23.55h0Zm-2.06-2.45c-.16-.36-.31-.79-.7-.96-.25-.08-.65.03-.71-.33.07-.31.57-.09.81-.17.88-.02,1.77-.27,2.63,0,.74.19,1.41.84,1.47,1.64.02.39-.26.71-.59.87-.04-.14.37.06.51.08.59.19,1.13.59,1.4,1.18.2.41.36.96.04,1.36-.37.41-.95.43-1.46.45-.76.02-1.53.03-2.28.18-.27.05-.46-.5-.09-.46.38-.01.41-.43.25-.69l-1.29-3.15h0Zm7.52-1.97c.33-.06.36.33.46.55.1.29.28.56.35.86-.28.29-.51-.15-.63-.37-.15-.26-.39-.49-.7-.47-.41,0-.83.02-1.24.07-.15.16.07.41.11.6l.57,1.38c.27-.02.63.02.82-.21.08-.24-.27-.77.21-.66.3.18.27.62.42.91.13.4.39.75.5,1.15-.27.3-.53-.13-.63-.37-.19-.36-.63-.32-.97-.31-.24-.05-.08.18-.04.29.22.51.39,1.04.67,1.52.21.35.66.3,1.01.29.33-.02.74-.03.94-.35.22-.26-.28-.78.13-.86.35-.03.34.39.44.63.07.29.19.57.29.85-.03.21-.28.14-.43.17l-3.1.2c-.3,0-.82.25-.91-.2.03-.3.66-.14.56-.56-.07-.36-.25-.68-.38-1.03l-1.14-2.78c-.14-.31-.37-.64-.74-.65-.24.05-.61-.13-.47-.42.35-.07.72-.02,1.08-.06l2.81-.17h0Zm2.34,1.36c-.16-.36-.31-.79-.69-.96-.26-.08-.74.01-.71-.41.25-.2.67-.03.98-.09.81-.01,1.64-.25,2.44,0,.84.24,1.54,1,1.6,1.9.03.43-.31.78-.69.89-.3.02.23.1.31.2.64.31,1.08.91,1.43,1.52.08.23.53.72.6.26-.03-.51.65-.08.49.27,0,.37-.36.61-.69.6-.47.04-.92-.24-1.15-.64-.43-.57-.72-1.26-1.28-1.72-.23-.17-.57-.28-.84-.16-.06.14.07.29.11.43.18.42.31.87.55,1.26.2.32.6.37.94.37.37.09.26.59-.13.45-.59,0-1.19-.05-1.78.08-.27.13-.88.01-.66-.38.29-.02.68-.18.49-.54l-1.06-2.68-.26-.65h0Zm1.42.92c.14.34.6.15.87.12.36-.08.35-.52.24-.8-.17-.48-.38-1.06-.9-1.23-.27-.04-.86-.21-.9.16l.64,1.64.05.13h0Zm7.32,1.77c.11.27.22.63.55.68.26.06.67-.02.73.34-.05.27-.45.11-.64.15-.55-.05-1.09.01-1.63.09-.23.07-.56-.03-.53-.33.13-.22.66-.04.63-.42-.09-.41-.28-.79-.42-1.19l-1.16-2.98c-.1-.32-.45-.31-.71-.29-.28,0-.69.06-.69.43-.09.24.22.64-.04.76-.31.07-.37-.28-.43-.5-.1-.33-.26-.64-.39-.96.04-.22.33-.18.5-.2l4.19-.18c.31-.05.51.2.52.49.11.35.27.67.42,1.01-.11.34-.52.05-.56-.2-.2-.36-.52-.72-.95-.73-.26.01-.65-.09-.83.15,0,.25.15.47.22.7l1.24,3.19h0Zm3.78-.94c-.19,0-.1.25-.12.38.01.29-.02.59.03.88.13.32.53.24.8.33.23.14.18.52-.14.4-.43-.03-.86-.07-1.29.03-.25.14-.72-.13-.5-.4.2-.04.46-.1.5-.35.07-.43.03-.86.05-1.3l.02-3.84c.12-.29.52-.05.61.17l3.64,4.68c.19.24.47.41.78.43.26,0,.41.55.03.44-.52-.03-1.04-.07-1.56.02-.23,0-.5.11-.71-.02-.25-.18-.07-.45.2-.42.36-.1,0-.49-.12-.67l-.6-.78c-.17-.09-.38-.02-.57-.03l-1.07.04h0Zm1.19-.53c.18.01-.06-.16-.09-.24l-1.29-1.72c.09-.01.02.18.04.26v1.74s1.34-.04,1.34-.04h0Zm3.1-1.91c-.15-.41-.35-.92-.83-1.01-.25.05-.71-.18-.46-.45l1.68-.02c.71-.06,1.44-.04,2.11.21,1.48.51,2.71,1.84,2.96,3.43.11.62-.08,1.35-.63,1.7-.75.48-1.67.39-2.5.34-.48-.02-.95.04-1.42.09-.31-.04-.34-.53.02-.47.38-.01.37-.44.23-.69l-1.14-3.12h0Zm2,2.58c.15.35.24.78.57,1.01.31.15.67.12,1,.08.45-.06.72-.51.73-.94.03-.78-.29-1.52-.64-2.19-.38-.72-1.07-1.27-1.87-1.42-.33-.05-.67-.11-1.01-.05-.07.13.06.28.09.41l1.13,3.1h0Zm-21.41,12.83c.12.36.45.62.82.65.26.05.71-.02.72.37-.14.24-.54.07-.78.13-.53,0-1.05,0-1.57.1-.28.01-.58.13-.85.05-.25-.12-.2-.49.11-.44.25-.06.61-.14.63-.46-.02-.29-.18-.55-.28-.83l-1.17-2.84c-.09-.33-.45-.34-.73-.29-.25.05-.62.13-.69-.23.03-.3.5-.25.71-.4l.95-.37c.22-.05.33.16.38.33l1.74,4.24h0Zm.76-4.66c.69-.03,1.39.08,2.07,0,.31-.03.1-.51.39-.49.38.02.32.49.34.76.04.29-.17.56-.46.6-.04,0-.08,0-.12,0-.54.03-1.08-.05-1.62-.02.12.43.29.84.45,1.25.03-.14.47-.16.65-.19,1.08-.05,2.2.58,2.65,1.59.22.49.33,1.14-.03,1.59-.39.47-1.04.57-1.62.57-.5,0-1.08-.12-1.37-.57-.17-.22-.14-.7.22-.66.31,0,.67.27.62.62.17.23.53.15.79.14.3-.01.59-.25.58-.58,0-.5-.19-.99-.46-1.4-.3-.44-.79-.73-1.32-.72-.3-.05-.56.15-.84.15-.29-.04-.34-.38-.44-.6l-.66-1.88c-.02-.11.08-.2.18-.18h0Zm6.95,1.05c-.16-.41-.38-.91-.85-1-.25.06-.71-.18-.47-.44l1.7-.07c.71-.09,1.45-.07,2.13.18,1.51.51,2.75,1.88,2.98,3.5.09.6-.12,1.28-.64,1.61-.73.48-1.63.41-2.46.39-.46,0-.91.07-1.37.13-.31-.04-.36-.52,0-.48.38-.03.35-.45.21-.7l-1.23-3.12h0Zm2.06,2.54c.16.35.26.78.6,1,.31.14.66.1.99.05.45-.08.7-.54.69-.97,0-.79-.33-1.53-.7-2.2-.39-.71-1.09-1.25-1.9-1.38-.33-.05-.67-.09-1-.02-.07.13.07.28.1.42l1.22,3.1h0Zm6.53-4.4c.32-.05.36.3.44.52.1.29.25.57.35.86-.19.32-.51-.06-.6-.29-.15-.26-.36-.54-.68-.53-.42-.02-.84,0-1.25.04-.23.1.02.4.05.59l.55,1.4c.27,0,.58.01.81-.16.18-.22-.27-.76.22-.7.33.12.28.59.42.87.13.41.36.77.5,1.18-.18.34-.55-.06-.6-.31-.14-.33-.53-.37-.84-.36-.21-.04-.38.01-.23.22.22.53.38,1.09.66,1.59.21.36.66.31,1.01.31.33-.01.75,0,.95-.33.21-.25-.2-.68.08-.84.34-.1.42.29.47.54.08.32.19.62.29.93-.03.2-.28.14-.43.16l-3.13.13c-.29-.02-.7.21-.88-.12-.19-.41.51-.19.54-.54.02-.32-.16-.59-.25-.88l-1.16-2.99c-.14-.32-.37-.68-.75-.7-.24.04-.61-.14-.46-.43.36-.06.74,0,1.11-.04l2.82-.11h0Zm-27.67,14.75c.15.5.68.71,1.13.84.78.27,1.62.54,2.18,1.2.31.38.53.88.5,1.39-.04.51-.47.9-.94,1.02-.57.19-1.21.14-1.76-.1-.27-.12-.17.48-.5.28-.24-.19-.17-.58-.3-.84-.11-.34-.25-.67-.39-1,.01-.34.49-.16.5.1.33.61.94,1.16,1.66,1.16.36.01.82-.19.85-.6,0-.55-.42-.99-.88-1.22-.65-.34-1.39-.45-2.02-.84-.56-.35-.96-.99-.96-1.66.01-.45.38-.8.78-.93.51-.18,1.07-.2,1.59-.05.24.13.34-.28.6-.08.12.2.09.48.2.69.08.3.27.55.34.85-.16.25-.47.01-.52-.21-.22-.38-.52-.8-1-.83-.35-.03-.8-.03-1.02.3-.1.16-.09.36-.03.53h0Zm6.78-1.7c.33-.06.34.32.42.55.08.28.21.54.29.83-.14.3-.5.03-.54-.22-.14-.27-.34-.59-.68-.57-.42,0-.83.02-1.24.08-.23.1,0,.4.03.59l.47,1.4c.27-.02.58-.01.81-.19.2-.21-.19-.62.14-.72.38-.05.35.46.44.71.1.46.34.88.47,1.33-.15.33-.54.01-.56-.26-.11-.34-.49-.41-.8-.38-.18-.01-.43-.01-.28.22l.56,1.56c.12.29.46.36.74.33.4-.03.86.02,1.17-.29.25-.24.04-.6.1-.88.25-.21.53.07.51.35.07.36.16.71.27,1.05-.04.21-.3.15-.45.18l-3.1.24c-.28-.01-.69.24-.87-.09-.16-.4.46-.21.54-.52s-.1-.59-.17-.88l-1.02-3.04c-.12-.32-.33-.68-.71-.68-.24.06-.6-.14-.44-.42.35-.07.72-.03,1.08-.07l2.81-.2h0Zm4.24,4.28c.09.31.27.66.62.72.25.09.67-.08.74.3-.01.34-.5.15-.72.21-.52-.03-1.04,0-1.54.11-.22.03-.55.11-.62-.2-.06-.35.47-.15.58-.41.08-.27-.07-.53-.14-.79l-1.02-3.12c-.12-.3-.27-.7-.64-.73-.24-.01-.64-.03-.57-.38.18-.17.49-.05.72-.08.74.02,1.47-.2,2.21-.15.76.03,1.5.52,1.76,1.27.17.42.22.95-.08,1.32-.39.47-1.04.57-1.6.64-.22-.03-.04.2-.03.31l.32.98h0Zm-.58-1.78c.21.03.47-.03.69-.09.32-.07.48-.41.4-.72-.09-.44-.23-.89-.55-1.21-.31-.26-.76-.27-1.13-.17-.14.13,0,.33.04.49l.56,1.7h0Zm6.24,1.48c.09.26.17.63.5.67.25.06.67-.04.7.33-.06.27-.45.12-.65.16-.55-.04-1.09.03-1.63.12-.23.08-.56-.02-.5-.32.14-.22.66-.05.65-.43-.06-.4-.22-.78-.33-1.17l-.96-3c-.08-.32-.44-.3-.69-.28s-.63.05-.7.36c-.08.26.04.55-.02.8-.24.17-.47-.09-.46-.34-.08-.36-.21-.7-.35-1.04,0-.25.31-.23.49-.24l4.2-.26c.31-.06.5.19.49.49.08.35.23.67.35,1.01-.07.29-.49.13-.51-.12-.18-.36-.45-.76-.89-.79-.28,0-.63-.06-.87.13-.05.21.08.42.13.62l1.06,3.3h0Zm2.13-3.4c-.11-.32-.22-.72-.58-.82-.24-.06-.66,0-.63-.37.1-.22.42-.08.62-.12.61.03,1.21-.06,1.81-.12.27-.12.49.43.15.43-.26,0-.55.19-.45.49.13.55.33,1.08.49,1.62l.73,2.27c.07.24.25.45.51.46.24,0,.67.04.6.39-.18.16-.49.06-.72.08-.55-.05-1.09.05-1.63.12-.24.1-.54-.14-.4-.39.21-.1.66-.04.63-.4-.08-.42-.24-.83-.36-1.24l-.76-2.41h0Zm5.84-1.65c.32-.06.34.32.41.53.08.29.2.56.28.84-.15.29-.5.02-.54-.23-.13-.27-.33-.59-.68-.58-.42-.01-.83.01-1.25.05-.23.1-.02.4.01.59l.45,1.4c.27-.01.59,0,.82-.17.2-.2-.18-.63.16-.71.38-.04.34.46.43.71.09.46.32.88.45,1.33-.12.3-.53.04-.54-.22-.1-.33-.43-.47-.75-.44-.15.02-.51-.08-.36.18l.54,1.6c.12.3.45.36.73.35.4-.02.86.03,1.18-.27.25-.23.05-.6.11-.87.26-.2.53.08.5.36.06.36.15.71.25,1.05-.04.2-.28.14-.44.16l-3.14.18c-.28-.02-.65.21-.85-.07-.22-.4.39-.26.51-.5.14-.27-.04-.57-.11-.84l-.97-3.08c-.11-.33-.32-.73-.71-.74-.24.05-.6-.15-.43-.42.35-.07.71-.02,1.07-.05l2.85-.15h0Zm2.03.99c-.07-.37-.34-.7-.74-.64-.38.1-.51-.59-.03-.44.52,0,1.04-.08,1.55.04.25.27.45.59.67.89l2.2,3c-.16.04-.04-.19-.05-.31l.36-3.66c.28-.23.74-.14,1.09-.21.29-.04.94-.14.76.36-.34.06-.78.23-.54.67l1.13,3.7c.07.43.5.56.87.54.32.02.34.58-.05.45-.6-.01-1.21-.05-1.8.07-.27.09-.83.06-.65-.37.3-.05.81-.15.6-.59l-1-3.28c.07.1-.01.26,0,.39l-.3,3.07c-.04.27.05.59-.08.82-.24.12-.39-.12-.51-.29l-2.9-3.82c.1-.04.09.22.14.3l.92,2.98c.1.4.5.52.86.52.38.2.1.57-.24.42-.51-.07-1.01.03-1.51.09-.32,0-.33-.53.03-.46.48,0,.33-.54.22-.83l-1.04-3.38h.04s0-.01,0-.01Zm8.86.88c.06.23.37.08.53.1.29-.02.63-.18.64-.51.01-.45-.16-.93-.51-1.23-.33-.26-.78-.24-1.18-.2-.04.15.06.31.09.47l.41,1.37h0Zm.49,1.65c.13.36.2.77.46,1.06.24.19.58.11.85.09.26-.02.49-.24.47-.52-.03-.62-.32-1.3-.92-1.54-.34-.13-.72-.13-1.08-.09-.11.1.04.3.05.44l.17.57h0Zm-1.8-2.48c-.12-.36-.23-.8-.59-.96-.24-.09-.65.02-.67-.35.08-.3.55-.08.78-.14.9.01,1.82-.23,2.7.07.7.19,1.3.85,1.3,1.61,0,.42-.34.74-.7.89-.02-.14.37.07.51.1.54.19,1.03.57,1.24,1.13.18.43.28.98-.04,1.37-.37.42-.96.45-1.47.46-.8,0-1.61-.02-2.4.12-.29.04-.4-.52-.04-.46.37,0,.47-.39.33-.68l-.94-3.15h0Zm5.08-.18c-.12-.36-.22-.8-.59-.97-.24-.09-.7.01-.67-.38.2-.26.67-.04.97-.11.69,0,1.38-.13,2.06-.05.8.1,1.57.67,1.77,1.49.14.43.05.99-.37,1.23-.09.1-.53.2-.45.2.61.25,1.13.71,1.43,1.32.16.27.24.6.47.82.27.2.3-.17.35-.34.36-.18.54.33.39.6-.15.44-.69.52-1.08.42-.35-.08-.61-.35-.77-.67-.35-.55-.56-1.21-1.04-1.66-.23-.2-.57-.32-.86-.2-.08.14.04.3.06.44.13.4.21.83.39,1.21.16.34.55.42.89.42.33,0,.35.58-.03.44-.62,0-1.24-.08-1.86.03-.22,0-.54.14-.68-.1-.22-.43.42-.24.56-.48.09-.29-.06-.58-.13-.86l-.82-2.8h0Zm1.33.95c.1.34.56.15.82.15.3-.03.47-.34.4-.62-.08-.46-.19-.97-.55-1.3-.31-.23-.73-.23-1.1-.17-.16.13-.01.35.02.52l.41,1.41h0Zm6.98-2.62c.32-.05.33.31.39.53.07.29.19.57.26.86-.14.27-.49.03-.52-.21-.13-.27-.3-.61-.63-.62-.43-.04-.87-.02-1.31,0-.24.09-.03.4,0,.58l.4,1.41c.26,0,.55,0,.79-.11.28-.16-.11-.61.19-.73.38-.08.37.41.43.66.07.48.3.92.42,1.39-.13.29-.54.03-.53-.24-.08-.31-.38-.47-.68-.45-.14.03-.56-.12-.44.14l.49,1.62c.11.3.45.38.73.37.4,0,.87.06,1.2-.22.26-.22.08-.59.15-.86.26-.19.53.09.49.37.05.35.12.71.22,1.05-.05.2-.3.13-.46.15l-3.16.07c-.27-.03-.62.16-.83-.06-.27-.39.3-.31.48-.48.19-.23.03-.53-.03-.78l-.9-3.17c-.1-.32-.27-.7-.65-.75-.24.01-.62-.1-.49-.42.31-.11.67,0,.99-.04l2.99-.05h0Zm-33.28,13.56c-.09-.38-.22-.88-.65-.98-.24,0-.65-.06-.51-.41.31-.13.68-.03,1.02-.08.83-.04,1.68-.25,2.5-.03,1.21.28,2.26,1.23,2.62,2.45.23.76.26,1.65-.23,2.31-.53.69-1.43.88-2.24.89-.63,0-1.25-.01-1.87.12-.24.15-.64-.1-.43-.37.26-.08.68-.15.6-.54l-.37-1.58-.43-1.8h0Zm1.66,2.52c.1.33.14.73.41.98.28.17.62.1.93.07.48-.07.83-.49.9-.96.14-.78-.08-1.59-.38-2.3-.26-.62-.81-1.12-1.47-1.25-.38-.08-.79-.12-1.17-.04-.09.12.02.28.04.42l.75,3.09h0Zm7.16-4.58c.32-.06.31.31.37.53.06.29.16.56.22.84-.13.27-.49.06-.51-.19-.11-.26-.27-.6-.6-.61-.43-.02-.87.02-1.3.06-.24.09-.05.4-.03.59l.34,1.4c.28-.02.59,0,.83-.18.22-.19-.13-.64.21-.71.38-.05.31.46.37.71.05.46.26.88.35,1.33-.12.29-.54.06-.52-.22-.07-.33-.41-.47-.71-.43-.15.02-.5-.08-.38.18.14.53.23,1.08.42,1.6.1.3.44.36.71.34.42-.02.92.02,1.24-.32.25-.23.02-.62.17-.86.3-.17.49.15.45.42.03.34.09.68.16,1.01-.06.21-.31.15-.47.17l-3.12.2c-.26,0-.56.16-.79.01-.26-.28.1-.42.33-.45.29-.1.26-.46.19-.7l-.8-3.35c-.08-.31-.24-.7-.61-.73-.24.03-.61-.08-.47-.4.3-.12.66-.03.98-.08l2.97-.18h0Zm6.58,4.24c.05.32.29.59.6.64.24.1.61-.04.74.25.09.36-.39.24-.6.26-.58-.01-1.16-.02-1.74.07-.29.02-.58.1-.87.07-.28-.12-.15-.52.15-.46.27-.06.64-.13.72-.46.03-.28-.08-.54-.13-.82l-.65-2.86c-.03-.34-.39-.35-.64-.3-.23,0-.6.17-.67-.17-.04-.35.47-.28.68-.42l1.12-.39c.22-.05.31.15.32.33l.96,4.25h0Z" fill="#b07e09" stroke-width="0"/><path d="m495.6,298.05c-.07-.37-.28-.81-.7-.87-.3-.06-.68.03-.79.35-.11.39.04.84.37,1.06.28.2.6.32.91.47.06-.12.25-.36.24-.58,0-.15,0-.29-.03-.43h0Zm.85,2.99c-.1-.5-.58-.8-1.01-.98-.19-.03-.45-.29-.57-.18-.31.28-.46.74-.32,1.14.12.5.49.99,1.02,1.03.35.05.77-.11.88-.49.05-.17.04-.35,0-.53h0Zm.9-.22c.14.49-.06,1.05-.48,1.34-.59.41-1.37.44-2.04.24-.6-.18-1.1-.68-1.2-1.32-.12-.51.08-1.08.52-1.35.1-.1.49-.14.18-.22-.51-.25-1-.67-1.11-1.26-.12-.5.11-1.07.56-1.32.87-.48,2.12-.2,2.62.7.22.38.26.89,0,1.26-.14.2-.33.4-.57.46.49.1.94.41,1.24.82.14.19.24.42.29.66h0Zm3.31.57c.25,0,.51-.14.55-.41.09-.2-.09-.64.26-.61.31.02.28.39.31.62.03.41,0,.9-.35,1.17-.25.16-.57.1-.85.1-.57-.02-1.14-.14-1.71-.08-.24.02-.5.3-.73.1-.19-.23-.08-.54,0-.79.2-.64.63-1.15,1.12-1.59.34-.32.72-.67.77-1.17.04-.42-.08-.86-.3-1.23-.29-.47-.96-.63-1.42-.33-.23.15-.42.51-.23.77.21.17.61.02.71.37.13.24,0,.62-.31.61-.45.07-.85-.29-.97-.71-.18-.53.02-1.17.5-1.45.51-.32,1.15-.32,1.71-.17.57.14,1.06.6,1.23,1.18.16.45.16.96-.08,1.38-.38.74-1.17,1.11-1.68,1.73-.15.16-.25.38-.19.61.08-.21.4-.14.59-.17.35-.01.7.08,1.05.07h0Zm4-.43c.04.32.28.59.59.65.23.1.58-.02.73.23.15.36-.34.29-.54.28-.6-.02-1.2-.05-1.8.03-.29.01-.59.08-.88.05-.28-.13-.13-.51.16-.45.27-.05.64-.12.73-.44.04-.27-.07-.54-.11-.81l-.59-2.86c-.02-.29-.32-.36-.55-.32-.24-.03-.57.17-.72-.1-.18-.36.35-.36.56-.45l1.24-.4c.22-.05.3.16.32.34l.87,4.25h0Z" fill="#b07e09" stroke-width="0"/><path d="m475.74,216.76l-3.82,4.63c-1.22,5.41,1.81,9.49,7.76,13.03,4.82,3.05,13.74,3.81,16.56,1.35l-13.91-13.5-6.58-5.51h0Z" fill="url(#radial-gradient-6)" stroke="#4c0505" stroke-width=".22"/><path d="m503.91,356.07l-2.06-2.5c-8.68,11.67-19.52,22.14-33.08,29.52,15.29-4.41,25.3-15.76,35.14-27.01Zm-15.66,36.89c5.39-11.13,11.9-22.26,18.46-33.38l-2.17-2.72c-7.46,12.59-16.21,27.56-16.29,36.11h0Zm42.32-118.28c-1-4.39-2.3-9.13-4.37-13.49-2.69-5.61-6.72-11.19-12-17.36-9.52-10.51-19.04-20.66-32.38-28.15l.07-.14.08.05h.17l-.16-.21h.48l-.26-.26h.44l-.36-.41h.47l-.33-.34h.5l-.28-.38.4.03-.38-.4.56-.11-.45-.29.49-.1-.41-.29.59-.19-.52-.32.66-.3-.64-.47.68-.24-.74-.3.62-.33-.73-.13.5-.58-.71.04.32-.62-.68.06s-.03-.04-.04-.06l.37-.46-.68.12.3-.63-.66.34.19-.73-.64.45.1-.74-.59.51.06-.71-.52.55.05-.75-.51.63-.05-.74-.41.58-.21-.7-.34.7-.17-.74-.32.74-.16-.74-.28.74-.21-.7-.22.7-.16-.61-.24.74-.23-.7-.24.8-.3-.71-.13.85-.36-.69-.04.82-.39-.62-.03.81-.41-.59.03.71-.44-.38.22.77-.53-.32.2.67-.44-.25.16.65-.4-.13.21.49s-.02.04-.03.07l-.31-.06.18.38h0c-.39,1.07-.42,2.35-.36,3.63.01.24.6.48.69.63.28.44.23.68.23.68-1.61,2.67-3.06,4.72-3.22,7.78,1.3-1.67,2.64-3.72,4.52-3.72-.93,1.59-1.38,6.38-.33,7.1l.78-1.4c.03,1.11.18,1.85.39,2.4.33-.67.65-1.31.98-1.8.07,1.56.27,2.8.71,3.42.44-.76,1.02-1.23,1.64-1.62-.21.89-.53,1.73-.39,2.79.65-1.14,1.31-1.81,1.96-2.6-.38,1.64-.03,2.86.42,4.67.41-2.14.56-2.37,1.54-3.27.11,1.97-.26,3.75.15,4.85.89-1.73,1.48-1.48,2.01-2.6-.1,1.63-.42,3.4-.01,4.86.34-1.46,1.26-2.24,1.97-2.76.06,2.27.57,1.9-.81,3.82.59.27,2.58-.39,3.66-.86-.52,1.22-.37,2.17-.89,3.03,1.1-.56,2.03-1.47,2.94-2.4-.42,1.4-1.55,2.79-.98,4.19.26-1.3,1.29-2.38,2.27-2.58-.15.73-.26,2.25-1.29,2.98,2.48.26,3.46-1.44,4.7-2.79-.16,1.4-.12,2.52,1.57,4.5-.34-2.51.24-1.99,1.36-3.5.54,2.22,1.16,4.58,3.43,6.21-.94-2.34-1.12-3.55-.58-5.02.29,1.52,1.71,3.36,2.05,4.8.21-1.6.45-3.15.98-4.19.66,1.81,1.21,3.69,1.37,5.78.49-1.04.9-2.1,1.18-3.19,20.02,21.3,24.48,48.39,2.55,77,7.88-5.42,9.91-14.02,14.29-21.34-4.27,9.59-6.18,20.39-13.7,28.33,7.29-6.41,8.84-12.28,13.22-18.45-4.67,12.91-11.14,27.06-20.1,40.02l4.78,5.36,4.16-7.08c9.5-15.95,25.01-38.74,17.15-73.5h0Z" fill="#448127" stroke="#34541f" stroke-width=".22"/><path d="m473.06,212.5c-1.01.23-1.41.66-2.14,1.49.93.21,1.72.25,2.56.27.26-.02.35-.36.29-.6l-.13-.99c-.02-.22-.61-.21-.89-.09l.31-.08h0Z" fill="#eac102" stroke="#a08307" stroke-width=".22"/><path d="m470.91,213.99c.35-.12.71-.23,1.07-.31l1.09-.2c-.35.12-.71.23-1.07.31l-1.09.2Z" fill="#a08307" stroke-width="0"/><ellipse cx="477.65" cy="212.63" rx=".79" ry=".84" stroke="#000" stroke-width=".1"/><ellipse cx="477.83" cy="212.47" rx=".34" ry=".36" fill="url(#radial-gradient-7)" stroke-width="0"/><path d="m488.3,392.66l1.55-4.59,1.81-4.49,4.19-8.71,4.73-8.42,2.49-4.14,2.55-4.1-2.45,4.16-2.43,4.17-4.68,8.44-4.23,8.68-1.86,4.46-1.65,4.55h0Zm-19.11-9.77l4.95-2.45,4.77-2.79c3.11-1.98,6.07-4.2,8.86-6.63,2.79-2.42,5.4-5.06,7.87-7.82,1.24-1.38,2.43-2.8,3.61-4.24,1.17-1.44,2.32-2.9,3.45-4.37-1.1,1.5-2.22,2.98-3.36,4.44-1.15,1.46-2.34,2.88-3.56,4.28-2.44,2.8-5.07,5.43-7.85,7.87-2.8,2.43-5.77,4.65-8.91,6.6-1.57.98-3.17,1.89-4.81,2.74-1.64.85-3.31,1.63-5,2.36h0Zm37.81-30.31l2.23-3.4,2.13-3.47,4.02-7.09,3.8-7.22,3.73-7.26-1.77,3.68-1.81,3.66-3.76,7.24-4.06,7.08-4.5,6.79h0Zm5.97-25.94c1.73-2.1,3.32-4.31,4.76-6.63,1.44-2.31,2.73-4.72,3.86-7.2,2.27-4.97,3.9-10.22,5.05-15.57l.42-2.01c.11-.67.21-1.35.3-2.03.18-1.36.31-2.72.41-4.08.18-2.73.18-5.47-.03-8.2-.21-2.73-.63-5.44-1.26-8.1-.62-2.67-1.44-5.28-2.44-7.83,1.03,2.53,1.89,5.14,2.54,7.8.64,2.67,1.08,5.38,1.3,8.12.22,2.74.24,5.49.07,8.23-.09,1.37-.22,2.74-.39,4.1-.09.68-.18,1.36-.29,2.04l-.41,2.02c-1.18,5.35-2.83,10.61-5.13,15.58-1.14,2.49-2.45,4.89-3.91,7.2-1.47,2.3-3.09,4.5-4.85,6.57h0Zm-1.66-5.9c1.87-1.82,3.52-3.86,4.97-6.04,1.46-2.17,2.72-4.48,3.85-6.84l3.07-7.25,1.38-3.69.34-.93.3-.93.59-1.89v.02c.51-2.61.78-5.26.82-7.92s-.17-5.32-.58-7.95-1.01-5.23-1.76-7.78c-.74-2.56-1.62-5.07-2.59-7.55l2.69,7.51c.77,2.55,1.37,5.15,1.8,7.79.42,2.64.64,5.31.62,7.98s-.28,5.34-.79,7.96h0s0,.02,0,.02l-.59,1.87-.31.94-.34.92-1.4,3.69-3.11,7.24c-1.14,2.37-2.42,4.67-3.89,6.84-1.48,2.16-3.16,4.19-5.05,5.98h0Zm-5.9,30.12l3.62-5.16,1.8-2.59,1.76-2.61c1.08-1.8,2.02-3.69,2.94-5.59l2.75-5.7c1.81-3.81,3.55-7.65,5.04-11.6,1.49-3.95,2.66-8.01,3.5-12.15.86-4.14,1.44-8.33,1.91-12.53.43-4.2.48-8.45.04-12.65s-1.38-8.35-2.76-12.33c-1.37-3.99-3.16-7.83-5.17-11.53,2.04,3.68,3.87,7.5,5.27,11.49,1.4,3.99,2.36,8.14,2.81,12.35s.42,8.47,0,12.69c-.46,4.21-1.03,8.41-1.88,12.55s-2.04,8.22-3.54,12.17-3.26,7.79-5.08,11.6l-2.77,5.69c-.93,1.89-1.87,3.78-2.96,5.59-.54.91-1.18,1.75-1.78,2.61l-1.82,2.57-3.67,5.13h0Zm2.8,3.12l7.05-11.97c2.28-4.03,4.55-8.07,6.56-12.25s3.75-8.49,5.07-12.94c.66-2.22,1.22-4.48,1.68-6.76.23-1.14.43-2.28.6-3.43l.48-3.45c.59-4.61.94-9.25.94-13.9s-.37-9.3-1.21-13.87-2.17-9.04-4.03-13.29c-1.85-4.25-4.23-8.26-7.06-11.91,2.86,3.64,5.27,7.62,7.15,11.87,1.88,4.25,3.22,8.73,4.08,13.31s1.24,9.24,1.26,13.89-.32,9.31-.9,13.93l-.49,3.46c-.17,1.15-.38,2.3-.61,3.44-.46,2.28-1.03,4.54-1.7,6.77-1.33,4.46-3.09,8.78-5.11,12.95s-4.3,8.22-6.6,12.24c-2.31,4.02-4.72,7.97-7.15,11.91h0Zm-28.2-135.82c.48-.01.96.04,1.44.12.48.08.95.18,1.41.3.93.26,1.84.59,2.72.99,1.77.79,3.42,1.83,4.97,3,1.54,1.18,2.98,2.49,4.32,3.91l1.93,2.19,1.78,2.31-1.87-2.24-1.97-2.14c-1.35-1.38-2.79-2.69-4.33-3.85-1.53-1.17-3.17-2.2-4.91-3.02-.87-.41-1.76-.76-2.68-1.04-.92-.27-1.86-.49-2.82-.53h0Z" fill="#34541f" stroke-width="0"/><path d="m496.61,229.32s3.1,1.86,4.79,4.59c0,0-4.78-.91-8.18-4.8" fill="#448127" stroke-width="0"/><path d="m496.61,229.32c.49.27.95.58,1.4.91l1.3,1.06c.42.37.81.78,1.18,1.2.37.42.71.88,1.01,1.36l.14.22-.25-.06c-.8-.18-1.56-.43-2.31-.74s-1.47-.66-2.17-1.07c-1.39-.82-2.66-1.86-3.69-3.11,1.1,1.18,2.37,2.18,3.77,2.96.7.39,1.42.73,2.16,1.03.74.3,1.5.53,2.27.71l-.11.17c-.29-.47-.62-.92-.98-1.34s-.74-.82-1.14-1.21l-1.25-1.1-1.33-1h0Z" fill="#34541f" stroke-width="0"/><path d="m489.72,228.41l8.39,5.14s-1.63-3.59-5.12-5.14" fill="#448127" stroke-width="0"/><path d="m489.72,228.41l4.2,2.57,2.1,1.28,1.06.62,1.07.57-.13.15c-.27-.55-.58-1.08-.94-1.58-.35-.5-.74-.98-1.16-1.43-.42-.45-.88-.85-1.37-1.22-.49-.37-1.01-.69-1.56-.96.57.23,1.11.53,1.62.88s.98.76,1.42,1.19c.44.44.84.91,1.21,1.42.37.51.69,1.04.97,1.6l.13.26-.26-.11c-.78-.34-1.46-.78-2.17-1.21l-2.09-1.31-4.1-2.73h0Z" fill="#34541f" stroke-width="0"/><path d="m492.64,226s3.81,1.65,4.68,4.52c0,0-6.85-2.93-8.07-4.49" fill="#448127" stroke-width="0"/><path d="m492.64,226c.52.21,1.01.47,1.49.76.48.29.93.62,1.36.98.43.36.82.78,1.16,1.23.33.46.62.97.78,1.52l.07.23-.22-.09-2.11-.96-2.08-1.04-2.02-1.15-.96-.65c-.31-.23-.62-.48-.86-.79.26.3.57.52.89.74l.98.61,2.04,1.09,4.2,1.95-.15.14c-.16-.52-.41-1.02-.74-1.46-.33-.45-.7-.86-1.11-1.22-.41-.37-.84-.71-1.3-1.02-.46-.32-.93-.6-1.43-.85h0Z" fill="#34541f" stroke-width="0"/><path d="m486.86,228.99s6.74,4.92,8.73,4.92c0,0-1.98-3.37-5.46-4.91" fill="#448127" stroke-width="0"/><path d="m486.86,228.99l2.11,1.39,2.14,1.34,2.19,1.24,1.13.52c.38.15.78.3,1.17.31l-.09.16c-.32-.52-.69-1.02-1.09-1.5s-.82-.93-1.27-1.35-.93-.81-1.43-1.17-1.04-.67-1.59-.94c1.15.46,2.2,1.17,3.12,2,.47.41.9.86,1.31,1.34.4.48.78.98,1.12,1.52l.1.17h-.19c-.45-.02-.86-.17-1.25-.32-.39-.16-.77-.35-1.15-.54l-2.19-1.27-2.1-1.4-2.04-1.49h0Z" fill="#34541f" stroke-width="0"/><path d="m486.86,230.53s3.51,3.02,5.5,3.02c0,0-1.98-3.37-5.46-4.91" fill="#448127" stroke-width="0"/><path d="m486.86,230.53l1.29.93,1.33.86c.45.27.91.53,1.4.73.24.1.48.19.73.26.24.07.5.12.75.12l-.09.16c-.33-.53-.69-1.03-1.09-1.5-.4-.47-.82-.93-1.27-1.35s-.93-.81-1.43-1.17-1.04-.67-1.59-.94c1.15.46,2.2,1.17,3.12,2,.47.41.9.86,1.31,1.34.41.48.78.98,1.12,1.52l.1.16h-.19c-.56,0-1.08-.19-1.57-.4s-.96-.48-1.41-.76l-1.31-.92-1.22-1.03h0Z" fill="#34541f" stroke-width="0"/><path d="m485.1,223.75s7.31,5.29,8.17,8.16c0,0-6.61-3.09-7.84-4.65" fill="#448127" stroke-width="0"/><path d="m485.1,223.75l2.34,1.73,2.24,1.87c.73.65,1.43,1.33,2.08,2.05.33.36.64.75.92,1.15.28.4.55.83.7,1.32l.07.24-.22-.11-2.05-1.02-2.02-1.08-1.96-1.19-.93-.67c-.3-.24-.6-.49-.83-.79.25.29.56.52.87.75l.96.62,1.98,1.13,4.08,2.05-.15.13c-.14-.45-.39-.87-.66-1.26-.28-.4-.58-.77-.9-1.13-.64-.73-1.34-1.4-2.05-2.06l-2.19-1.91-2.27-1.82h0Z" fill="#34541f" stroke-width="0"/><path d="m444.53,372.66c-4.96,3.76-18.82,5.61-20.74,4.96,10.08-8.55,20-8.75,20.74-4.96h0Zm70.75,4.59c5.33,4.93,21.4,8.32,23.81,7.71-10.69-11.13-22.41-12.25-23.81-7.71Z" fill="#406325" stroke="#24420e" stroke-width=".16"/><path d="m444.48,372.63c-.73-3.79-10.61-3.56-20.67,4.93,10.59-3.56,19.51-5.58,20.67-4.93Zm70.9,4.56c1.39-4.55,12.98-3.45,23.69,7.71-12.05-5.19-22.26-8.37-23.69-7.71Z" fill="#67923d" stroke="#24420e" stroke-width=".16"/></svg>