<?xml version="1.0" encoding="UTF-8"?><svg id="Layer_1" xmlns="http://www.w3.org/2000/svg" viewBox="0 0 1200 600"><path d="m0,0h1200v600H0V0Z" fill="#fff" stroke-width="0"/><path d="m0,0h1200v200H0V0Zm0,400h1200v200H0v-200Z" fill="#00bce4" stroke-width="0"/><g id="g"><path id="s" d="m433.33,216.67l19.59,60.3-51.29-37.27h63.4l-51.29,37.27,19.59-60.3Z" fill="#00bce4" stroke-width="0"/><path id="s-2" d="m433.33,316.67l19.59,60.3-51.29-37.27h63.4l-51.29,37.27,19.59-60.3Z" fill="#00bce4" stroke-width="0"/></g><path id="s-3" d="m600,266.67l19.59,60.3-51.29-37.27h63.4l-51.29,37.27,19.59-60.3Z" fill="#00bce4" stroke-width="0"/><g id="g-2"><path id="s-4" d="m766.67,216.67l19.59,60.3-51.29-37.27h63.4l-51.29,37.27,19.59-60.3Z" fill="#00bce4" stroke-width="0"/><path id="s-5" d="m766.67,316.67l19.59,60.3-51.29-37.27h63.4l-51.29,37.27,19.59-60.3Z" fill="#00bce4" stroke-width="0"/></g></svg>