<?xml version="1.0" encoding="UTF-8"?><svg id="Lock_line" xmlns="http://www.w3.org/2000/svg" viewBox="0 0 20.56 25.86"><path id="Trazado_529" d="m1.65,19.59l-.82.38h0l.82-.38Zm-.41-7.46l.85.26-.85-.26Zm18.07,0l-.85.26.85-.26Zm-.41,7.46l.82.38h0l-.82-.38Zm-6.24,5.06l-.14-.98h0l.14.98Zm-4.78,0l.14-.98h0l-.14.98Zm-1.53-17.55l-.18-.97h0l.18.97Zm7.85,0l.18-.97h0l-.18.97Zm-7.2,17.4l-.14.98h0l.14-.98Zm-5.25-4.6l.82-.38h0l-.82.38Zm11.79,4.6l.14.98h0l-.14-.98Zm5.25-4.6l-.82-.38h0l.82.38Zm-4.27-12.73l-.17.97h0l.17-.97Zm-8.5,0l.18.97-.18-.97Zm-1.74-.3c-.03.52.36.96.88.99.52-.03.91-.48.88-.99h-1.76Zm.88-.4h0Zm10.23,0h0Zm-.88.4c-.06.49.29.93.78.98s.93-.29.98-.78c0-.07,0-.14,0-.21h-1.76ZM8.93,1.18l-.21-.97h0l.21.97Zm2.7,0l.21-.97h0l-.21.97Zm-5.43,6.96l.32-.07-.35-1.95-.32.07.35,1.95Zm7.83-.07l.32.07.35-1.95-.32-.07-.35,1.95Zm-.62,15.44l-.88.16.27,1.97.88-.16-.27-1.97Zm-5.39.16l-.88-.16-.27,1.97.88.16.27-1.97Zm10.07-4.45l-.11.3,1.63.75.11-.3-1.63-.75Zm-15.52.3l-.11-.3-1.63.75.11.3,1.63-.75Zm-.11-.3c-.79-2.19-.91-4.56-.37-6.83l-1.7-.52c-.64,2.69-.49,5.5.44,8.1l1.63-.75Zm16-6.83c.54,2.26.41,4.64-.37,6.83l1.63.75c.93-2.6,1.09-5.41.44-8.1l-1.7.52Zm-5.93,11.28c-1.49.26-3.02.26-4.51,0l-.27,1.97c1.67.3,3.38.3,5.05,0l-.27-1.97Zm-6.01-15.6c2.47-.57,5.03-.57,7.5,0l.35-1.95c-2.7-.62-5.51-.62-8.2,0l.35,1.95Zm.62,15.44c-2.13-.41-3.87-1.94-4.57-3.99l-1.63.75c.9,2.67,3.16,4.66,5.93,5.21l.27-1.97Zm6.54,1.97c2.77-.55,5.03-2.54,5.93-5.21l-1.63-.75c-.7,2.05-2.44,3.58-4.57,3.99l.27,1.97Zm.67-17.33c2.06.52,3.66,2.16,4.11,4.24l1.7-.52c-.6-2.77-2.72-4.97-5.46-5.67l-.35,1.94Zm-8.5-1.95C3.1,6.9.99,9.09.39,11.87l1.7.52c.45-2.08,2.05-3.72,4.11-4.24l-.35-1.95Zm.19.67v-.4h-1.77v.4h1.77Zm8.47-.4v.4h1.76v-.4h-1.76Zm-5.37-4.32c.74-.21,1.53-.21,2.27,0l.43-1.93c-1.02-.29-2.1-.29-3.12,0l.43,1.93Zm7.13,4.32c.08-2.84-1.73-5.38-4.43-6.25l-.43,1.93c1.88.59,3.14,2.35,3.1,4.32h1.76Zm-10.23,0c-.04-1.97,1.22-3.73,3.1-4.32l-.43-1.93c-2.7.87-4.51,3.41-4.43,6.25h1.76Z" fill="#363853"/><path id="Trazado_530" d="m10.28,15.01v2.51" fill="none" stroke="#363853" stroke-linecap="round" stroke-width="3"/></svg>