<?xml version="1.0" encoding="UTF-8"?><svg id="Cloud_twocolors" xmlns="http://www.w3.org/2000/svg" viewBox="0 0 53.03 43.16"><path id="Trazado_513" d="m7.8,17.07C8.12,7.49,16.49,0,26.51,0c9.23,0,17.05,6.34,18.49,14.82,7.35,3.87,10.17,12.97,6.29,20.31-2.57,4.87-7.59,7.95-13.1,8.03H13.53C5.96,43.06-.1,36.84,0,29.26c.07-5.22,3.09-9.94,7.8-12.19ZM26.51,3.7c-8.42,0-15.03,6.35-15.03,13.94,0,.2,0,.39.01.59l.06,1.37-1.29.46c-5.19,1.9-7.86,7.65-5.96,12.84,1.42,3.89,5.09,6.5,9.22,6.57h24.67c6.26-.12,11.24-5.28,11.12-11.54-.08-4.41-2.72-8.37-6.75-10.16l-.99-.43-.11-1.07c-.74-6.95-7.06-12.56-14.96-12.56Z" fill="#ff6b00" fill-rule="evenodd"/><path id="Trazado_514" d="m7.8,17.07C8.12,7.49,16.49,0,26.51,0c1.02,0,1.85.83,1.85,1.85,0,1.02-.83,1.85-1.85,1.85-8.42,0-15.03,6.35-15.03,13.94,0,.2,0,.39.01.59l.06,1.37-1.29.46c-5.19,1.9-7.86,7.65-5.96,12.84,1.42,3.89,5.09,6.5,9.22,6.57h24.67c6.19-.05,11.18-5.11,11.13-11.3,0-1.02.83-1.85,1.85-1.85s1.85.83,1.85,1.85c0,2.97-.88,5.87-2.51,8.35-2.71,4.17-7.35,6.67-12.32,6.65H13.53C5.96,43.06-.1,36.84,0,29.26c.07-5.22,3.09-9.94,7.8-12.19Z" fill-rule="evenodd"/></svg>