<?xml version="1.0" encoding="UTF-8"?><svg id="Layer_1" xmlns="http://www.w3.org/2000/svg" viewBox="0 0 20.8 20.8"><g id="Grupo_892"><g id="User-plus_twocolors"><path id="Trazado_508" d="m17.87,7.46c.44,0,.8.36.8.8v1.33h1.33c.44,0,.8.36.8.8s-.36.8-.8.8h-1.33v1.33c0,.44-.36.8-.8.8-.44,0-.8-.36-.8-.8v-1.33h-1.33c-.44,0-.8-.36-.8-.8s.36-.8.8-.8h1.33v-1.33c0-.44.36-.8.8-.8Z" fill="#fff" fill-rule="evenodd"/><path id="Trazado_509" d="m5.42,13.56h0l-.22.04h0c-2.11.39-3.63,2.24-3.6,4.38-.02.65.5,1.2,1.15,1.21h11.03c.65-.02,1.17-.56,1.15-1.21.03-2.14-1.49-4-3.6-4.38l.13-.79-.13.79-.22-.04c-1.88-.31-3.8-.31-5.69,0Zm5.95-1.58l-.13.79.13-.79.22.04c2.88.51,4.97,3.03,4.94,5.96.02,1.54-1.21,2.8-2.75,2.81H2.75C1.21,20.78-.02,19.52,0,17.98c-.03-2.93,2.06-5.45,4.94-5.96h0l.22-.04h0c2.06-.34,4.15-.34,6.21,0Z" fill="#fff" fill-rule="evenodd"/><path id="Trazado_510" d="m8.27,1.6c-1.92-.04-3.51,1.48-3.56,3.4.09,1.96,1.75,3.48,3.71,3.4,1.84-.08,3.32-1.56,3.4-3.4-.04-1.92-1.64-3.44-3.56-3.4Zm-5.16,3.4C3.2,2.15,5.58-.09,8.43,0c2.72.08,4.91,2.27,4.99,4.99-.09,2.85-2.47,5.08-5.32,4.99-2.72-.08-4.91-2.27-4.99-4.99Z" fill="#fff" fill-rule="evenodd"/></g></g></svg>