<?xml version="1.0" encoding="UTF-8"?><svg id="User_line" xmlns="http://www.w3.org/2000/svg" viewBox="0 0 20.56 25.86"><path id="Trazado_528" d="m10.28,1.99c-2.39-.05-4.37,1.84-4.42,4.23.05,2.39,2.03,4.28,4.42,4.23,2.39.05,4.37-1.84,4.42-4.23-.05-2.39-2.03-4.28-4.42-4.23ZM3.87,6.22C3.92,2.73,6.79-.05,10.28,0c3.49-.05,6.35,2.73,6.41,6.22-.06,3.48-2.93,6.26-6.41,6.22-3.49.05-6.35-2.73-6.41-6.22Zm9.94,10.65c-2.34-.39-4.73-.39-7.07,0l-.28.05-.17-.98.16.98c-2.62.48-4.52,2.78-4.48,5.45-.02.81.62,1.49,1.43,1.51h13.72c.81-.02,1.45-.7,1.43-1.51.04-2.67-1.85-4.97-4.48-5.45l.16-.98-.16.98-.28-.05Zm.32-1.96l-.16.98.16-.98.28.05c3.58.64,6.18,3.77,6.14,7.41.02,1.91-1.51,3.48-3.42,3.5H3.42C1.51,25.84-.02,24.27,0,22.36c-.04-3.64,2.56-6.77,6.14-7.41l.28-.05.16.98-.16-.98c2.56-.42,5.16-.42,7.72,0h0Z" fill="#363853" fill-rule="evenodd"/></svg>